<?xml version="1.0" encoding="UTF-8" standalone="no"?>
<svg
   xmlns:dc="http://purl.org/dc/elements/1.1/"
   xmlns:cc="http://creativecommons.org/ns#"
   xmlns:rdf="http://www.w3.org/1999/02/22-rdf-syntax-ns#"
   xmlns:svg="http://www.w3.org/2000/svg"
   xmlns="http://www.w3.org/2000/svg"
   xmlns:sodipodi="http://sodipodi.sourceforge.net/DTD/sodipodi-0.dtd"
   xmlns:inkscape="http://www.inkscape.org/namespaces/inkscape"
   inkscape:version="1.0 (4035a4f, 2020-05-01)"
   sodipodi:docname="trill-craft-strip-fcb.svg"
   id="svg1875"
   viewBox="0 0 82677.163 116929.13"
   height="297mm"
   width="210mm"
   version="1.1"
   inkscape:export-filename="/Users/beckystewart/OneDrive - Imperial College London/Research Projects/trill-craft/trill-craft-strip-fcb.png"
   inkscape:export-xdpi="96"
   inkscape:export-ydpi="96">
  <metadata
     id="metadata1881">
    <rdf:RDF>
      <cc:Work
         rdf:about="">
        <dc:format>image/svg+xml</dc:format>
        <dc:type
           rdf:resource="http://purl.org/dc/dcmitype/StillImage" />
        <dc:title>SVG Picture created as trill-craft_A3-brd.svg date 2020/08/04 18:40:39 </dc:title>
      </cc:Work>
    </rdf:RDF>
  </metadata>
  <defs
     id="defs1879">
    <inkscape:path-effect
       fuse_tolerance="0"
       hide_knot="false"
       vertical_pattern="false"
       prop_units="true"
       tang_offset="0"
       normal_offset="0"
       spacing="0.3"
       scale_y_rel="false"
       prop_scale="1"
       copytype="repeated"
       pattern="m 56782.629,156830.91 a 1525.5157,1525.5159 0 0 1 -1525.516,1525.52 1525.5157,1525.5159 0 0 1 -1525.516,-1525.52 1525.5157,1525.5159 0 0 1 1525.516,-1525.51 1525.5157,1525.5159 0 0 1 1525.516,1525.51 m -3461.796,-1936.28 h 3872.561 v 3872.56 h -3872.561 z"
       lpeversion="1"
       is_visible="true"
       id="path-effect21450"
       effect="skeletal" />
    <inkscape:path-effect
       effect="skeletal"
       id="path-effect20434"
       is_visible="true"
       lpeversion="1"
       pattern="m 56782.629,156830.91 a 1525.5157,1525.5159 0 0 1 -1525.516,1525.52 1525.5157,1525.5159 0 0 1 -1525.516,-1525.52 1525.5157,1525.5159 0 0 1 1525.516,-1525.51 1525.5157,1525.5159 0 0 1 1525.516,1525.51 m -3461.796,-1936.28 h 3872.561 v 3872.56 h -3872.561 z"
       copytype="repeated"
       prop_scale="1"
       scale_y_rel="false"
       spacing="0.3"
       normal_offset="0"
       tang_offset="0"
       prop_units="true"
       vertical_pattern="false"
       hide_knot="false"
       fuse_tolerance="0" />
    <inkscape:path-effect
       effect="skeletal"
       id="path-effect19418"
       is_visible="true"
       lpeversion="1"
       pattern="m 57860.215,116601.03 a 1525.5157,1525.5159 0 0 1 -1525.516,1525.52 1525.5157,1525.5159 0 0 1 -1525.516,-1525.52 1525.5157,1525.5159 0 0 1 1525.516,-1525.51 1525.5157,1525.5159 0 0 1 1525.516,1525.51 m -3461.796,-1936.28 h 3872.561 v 3872.56 h -3872.561 z"
       copytype="repeated"
       prop_scale="1"
       scale_y_rel="false"
       spacing="0.3"
       normal_offset="0"
       tang_offset="0"
       prop_units="true"
       vertical_pattern="false"
       hide_knot="false"
       fuse_tolerance="0" />
    <inkscape:path-effect
       fuse_tolerance="0"
       hide_knot="false"
       vertical_pattern="false"
       prop_units="true"
       tang_offset="0"
       normal_offset="0"
       spacing="0.3"
       scale_y_rel="false"
       prop_scale="1"
       copytype="repeated"
       pattern="m 57860.215,116601.03 a 1525.5157,1525.5159 0 0 1 -1525.516,1525.52 1525.5157,1525.5159 0 0 1 -1525.516,-1525.52 1525.5157,1525.5159 0 0 1 1525.516,-1525.51 1525.5157,1525.5159 0 0 1 1525.516,1525.51 m -3461.796,-1936.28 h 3872.561 v 3872.56 h -3872.561 z"
       lpeversion="1"
       is_visible="true"
       id="path-effect18402"
       effect="skeletal" />
    <inkscape:path-effect
       effect="skeletal"
       id="path-effect17351"
       is_visible="true"
       lpeversion="1"
       pattern="m 57141.824,79963.101 a 1525.5157,1525.5159 0 0 1 -1525.516,1525.516 1525.5157,1525.5159 0 0 1 -1525.516,-1525.516 1525.5157,1525.5159 0 0 1 1525.516,-1525.515 1525.5157,1525.5159 0 0 1 1525.516,1525.515 M 53680.028,78026.82 h 3872.561 v 3872.561 h -3872.561 z"
       copytype="repeated"
       prop_scale="1"
       scale_y_rel="false"
       spacing="0.3"
       normal_offset="0"
       tang_offset="0"
       prop_units="true"
       vertical_pattern="false"
       hide_knot="false"
       fuse_tolerance="0" />
  </defs>
  <sodipodi:namedview
     inkscape:current-layer="svg1875"
     inkscape:window-maximized="0"
     inkscape:window-y="0"
     inkscape:window-x="0"
     inkscape:cy="191.13807"
     inkscape:cx="390.24268"
     inkscape:zoom="1.52"
     showgrid="false"
     id="namedview1877"
     inkscape:window-height="900"
     inkscape:window-width="1440"
     inkscape:pageshadow="2"
     inkscape:pageopacity="0"
     guidetolerance="10"
     gridtolerance="10"
     objecttolerance="10"
     borderopacity="1"
     bordercolor="#666666"
     pagecolor="#ffffff"
     inkscape:document-rotation="0"
     fit-margin-top="1"
     fit-margin-bottom="1"
     fit-margin-right="1"
     fit-margin-left="1"
     units="mm" />
  <title
     id="title833">SVG Picture created as trill-craft_A3-brd.svg date 2020/08/04 18:40:39 </title>
  <desc
     id="desc835">Picture generated by PCBNEW </desc>
  <g
     id="g837"
     style="fill:#000000;fill-opacity:1;stroke:#000000;stroke-linecap:round;stroke-linejoin:round;stroke-opacity:1"
     transform="translate(28108.806,8225.8037)" />
  <g
     id="g839"
     style="fill:#000000;fill-opacity:0;stroke:#000000;stroke-width:-0.000393701;stroke-linecap:round;stroke-linejoin:round;stroke-opacity:1"
     transform="translate(28108.806,8225.8037)" />
  <g
     id="g841"
     style="fill:#008484;fill-opacity:0;stroke:#008484;stroke-width:-0.000393701;stroke-linecap:round;stroke-linejoin:round;stroke-opacity:1"
     transform="translate(28108.806,8225.8037)" />
  <g
     id="g1237"
     style="fill:#008484;fill-opacity:1;stroke:#008484;stroke-width:80;stroke-linecap:round;stroke-linejoin:round;stroke-opacity:1"
     transform="translate(28108.806,8225.8037)" />
  <g
     id="g1719"
     style="fill:#008484;fill-opacity:0;stroke:#008484;stroke-width:59.0551;stroke-linecap:round;stroke-linejoin:round;stroke-opacity:1"
     transform="translate(28108.806,8225.8037)">
    <text
       id="text1715"
       opacity="0"
       text-anchor="middle"
       lengthAdjust="spacingAndGlyphs"
       font-size="524.934px"
       textLength="39.5201"
       y="2850.03"
       x="18383.5" />
    <text
       id="text1717"
       opacity="0"
       text-anchor="middle"
       lengthAdjust="spacingAndGlyphs"
       font-size="524.934px"
       textLength="59.055099"
       y="2850.03"
       x="3816.5601" />
  </g>
  <g
     id="g1817"
     style="fill:#000000;fill-opacity:0;stroke:#000000;stroke-width:38;stroke-linecap:round;stroke-linejoin:round;stroke-opacity:1"
     transform="translate(28108.806,8225.8037)">
    <g
       id="g1779" />
    <g
       id="g1781" />
    <g
       id="g1783" />
    <g
       id="g1785" />
    <g
       id="g1787" />
    <g
       id="g1789" />
    <g
       id="g1791" />
    <g
       id="g1793" />
    <g
       id="g1795" />
    <g
       id="g1797" />
    <g
       id="g1799" />
    <g
       id="g1801" />
    <g
       id="g1803" />
    <g
       id="g1805" />
    <g
       id="g1807" />
    <g
       id="g1809" />
    <g
       id="g1811" />
    <g
       id="g1813" />
    <g
       id="g1815" />
  </g>
  <g
     id="g1819"
     style="fill:#000000;fill-opacity:0;stroke:#000000;stroke-width:38;stroke-linecap:round;stroke-linejoin:round;stroke-opacity:1"
     transform="translate(28108.806,8225.8037)" />
  <g
     id="g1821"
     style="fill:#c2c200;fill-opacity:0;stroke:#c2c200;stroke-width:38;stroke-linecap:round;stroke-linejoin:round;stroke-opacity:1"
     transform="translate(28108.806,8225.8037)" />
  <g
     id="g16613"
     transform="translate(28271.077,6767.4704)">
    <g
       style="fill:#008484;fill-opacity:0;stroke:#008484;stroke-width:39.3701;stroke-linecap:round;stroke-linejoin:round;stroke-opacity:1"
       id="g897">
      <text
         x="10504.6"
         y="6944.5098"
         textLength="299.96301"
         font-size="419.947px"
         lengthAdjust="spacingAndGlyphs"
         text-anchor="end"
         opacity="0"
         id="text843">8</text>
      <path
         d="m 10298,6749 -30,-15 -15,-15 -15,-30 v -15 l 15,-30 15,-15 30,-15 h 60 l 30,15 15,15 15,30 v 15 l -15,30 -15,15 -30,15 h -60 l -30,15 -15,15 -15,30 v 60 l 15,30 15,15 30,15 h 60 l 30,-15 15,-15 15,-30 v -60 l -15,-30 -15,-15 -30,-15"
         id="path845" />
      <g
         transform="rotate(180,2029.55,1629.55)"
         id="g849">
        <text
           x="2029.55"
           y="1944.51"
           textLength="651.10602"
           font-size="419.947px"
           lengthAdjust="spacingAndGlyphs"
           text-anchor="end"
           opacity="0"
           id="text847">29</text>
      </g>
      <path
         d="m 2595,1614 -15,15 -30,15 h -75 l -30,-15 -15,-15 -15,-30 v -30 l 15,-45 180,-180 h -195"
         id="path851" />
      <path
         d="m 2265,1329 h -60 l -30,15 -15,15 -30,45 -15,60 v 120 l 15,30 15,15 30,15 h 60 l 30,-15 15,-15 15,-30 v -75 l -15,-30 -15,-15 -30,-15 h -60 l -30,15 -15,15 -15,30"
         id="path853" />
      <g
         transform="rotate(180,4024.55,1629.55)"
         id="g857">
        <text
           x="4024.55"
           y="1944.51"
           textLength="651.10602"
           font-size="419.947px"
           lengthAdjust="spacingAndGlyphs"
           text-anchor="end"
           opacity="0"
           id="text855">27</text>
      </g>
      <path
         d="m 4590,1614 -15,15 -30,15 h -75 l -30,-15 -15,-15 -15,-30 v -30 l 15,-45 180,-180 h -195"
         id="path859" />
      <path
         d="m 4305,1644 h -210 l 135,-315"
         id="path861" />
      <g
         transform="rotate(180,5029.55,1629.55)"
         id="g865">
        <text
           x="5029.5498"
           y="1944.51"
           textLength="651.10602"
           font-size="419.947px"
           lengthAdjust="spacingAndGlyphs"
           text-anchor="end"
           opacity="0"
           id="text863">26</text>
      </g>
      <path
         d="m 5595,1614 -15,15 -30,15 h -75 l -30,-15 -15,-15 -15,-30 v -30 l 15,-45 180,-180 h -195"
         id="path867" />
      <path
         d="m 5145,1644 h 60 l 30,-15 15,-15 30,-45 15,-60 v -120 l -15,-30 -15,-15 -30,-15 h -60 l -30,15 -15,15 -15,30 v 75 l 15,30 15,15 30,15 h 60 l 30,-15 15,-15 15,-30"
         id="path869" />
      <g
         transform="rotate(180,3029.55,1629.55)"
         id="g873">
        <text
           x="3029.55"
           y="1944.51"
           textLength="651.10602"
           font-size="419.947px"
           lengthAdjust="spacingAndGlyphs"
           text-anchor="end"
           opacity="0"
           id="text871">28</text>
      </g>
      <path
         d="m 3595,1614 -15,15 -30,15 h -75 l -30,-15 -15,-15 -15,-30 v -30 l 15,-45 180,-180 h -195"
         id="path875" />
      <path
         d="m 3235,1509 30,15 15,15 15,30 v 15 l -15,30 -15,15 -30,15 h -60 l -30,-15 -15,-15 -15,-30 v -15 l 15,-30 15,-15 30,-15 h 60 l 30,-15 15,-15 15,-30 v -60 l -15,-30 -15,-15 -30,-15 h -60 l -30,15 -15,15 -15,30 v 60 l 15,30 15,15 30,15"
         id="path877" />
      <text
         x="15679.6"
         y="6944.5098"
         textLength="651.10602"
         font-size="419.947px"
         lengthAdjust="spacingAndGlyphs"
         text-anchor="end"
         opacity="0"
         id="text879">13</text>
      <path
         d="m 15294,6929 h -180"
         id="path881" />
      <path
         d="m 15204,6929 v -315 l -30,45 -30,30 -30,15"
         id="path883" />
      <path
         d="m 15398,6614 h 195 l -105,120 h 45 l 30,15 15,15 15,30 v 75 l -15,30 -15,15 -30,15 h -90 l -30,-15 -15,-15"
         id="path885" />
      <text
         x="16654.6"
         y="6944.5098"
         textLength="651.10602"
         font-size="419.947px"
         lengthAdjust="spacingAndGlyphs"
         text-anchor="end"
         opacity="0"
         id="text887">14</text>
      <path
         d="m 16269,6929 h -180"
         id="path889" />
      <path
         d="m 16179,6929 v -315 l -30,45 -30,30 -30,15"
         id="path891" />
      <path
         d="m 16538,6719 v 210"
         id="path893" />
      <path
         d="m 16463,6599 -75,225 h 195"
         id="path895" />
    </g>
    <g
       style="fill:#008484;fill-opacity:0;stroke:#008484;stroke-width:78.7402;stroke-linecap:round;stroke-linejoin:round;stroke-opacity:1"
       id="g959">
      <text
         x="7904.5498"
         y="4737.0298"
         textLength="351.14401"
         font-size="419.947px"
         lengthAdjust="spacingAndGlyphs"
         text-anchor="middle"
         opacity="0"
         id="text899">1</text>
      <path
         d="M 7994,4722 H 7814"
         id="path901" />
      <path
         d="m 7904,4722 v -315 l -30,45 -30,30 -30,15"
         id="path903" />
      <text
         x="7879.5498"
         y="3837.03"
         textLength="402.32501"
         font-size="419.947px"
         lengthAdjust="spacingAndGlyphs"
         text-anchor="middle"
         opacity="0"
         id="text905">0</text>
      <path
         d="m 7864,3507 h 30 l 30,15 15,15 15,30 15,60 v 75 l -15,60 -15,30 -15,15 -30,15 h -30 l -30,-15 -15,-15 -15,-30 -15,-60 v -75 l 15,-60 15,-30 15,-15 30,-15"
         id="path907" />
      <path
         d="M 7554,3329 H 5804"
         id="path909" />
      <path
         d="M 7554,4929 V 3329"
         id="path911" />
      <path
         d="M 5804,4929 H 7554"
         id="path913" />
      <path
         d="M 5804,3379 V 4929"
         id="path915" />
      <g
         transform="rotate(-90,479.554,6644.55)"
         id="g919">
        <text
           x="479.55399"
           y="6802.0298"
           textLength="972.25403"
           font-size="419.947px"
           lengthAdjust="spacingAndGlyphs"
           text-anchor="middle"
           opacity="0"
           id="text917">SCL</text>
      </g>
      <path
         d="m 607,7019 15,-45 v -75 l -15,-30 -15,-15 -30,-15 h -30 l -30,15 -15,15 -15,30 -15,60 -15,30 -15,15 -30,15 h -30 l -30,-15 -15,-15 -15,-30 v -75 l 15,-45"
         id="path921" />
      <path
         d="m 592,6524 15,15 15,45 v 30 l -15,45 -30,30 -30,15 -60,15 h -45 l -60,-15 -30,-15 -30,-30 -15,-45 v -30 l 15,-45 15,-15"
         id="path923" />
      <path
         d="m 622,6239 v 150 H 307"
         id="path925" />
      <g
         transform="rotate(-90,479.554,3644.55)"
         id="g929">
        <text
           x="479.55399"
           y="3802.03"
           textLength="1062.24"
           font-size="419.947px"
           lengthAdjust="spacingAndGlyphs"
           text-anchor="middle"
           opacity="0"
           id="text927">GND</text>
      </g>
      <path
         d="m 322,3884 -15,30 v 45 l 15,45 30,30 30,15 60,15 h 45 l 60,-15 30,-15 30,-30 15,-45 v -30 l -15,-45 -15,-15 H 487 v 60"
         id="path931" />
      <path
         d="M 622,3734 H 307 L 622,3554 H 307"
         id="path933" />
      <path
         d="M 622,3404 H 307 v -75 l 15,-45 30,-30 30,-15 60,-15 h 45 l 60,15 30,15 30,30 15,45 v 75"
         id="path935" />
      <g
         transform="rotate(-90,479.554,4644.55)"
         id="g939">
        <text
           x="479.55399"
           y="4802.0298"
           textLength="762.28003"
           font-size="419.947px"
           lengthAdjust="spacingAndGlyphs"
           text-anchor="middle"
           opacity="0"
           id="text937">+V</text>
      </g>
      <path
         d="M 502,4899 V 4659"
         id="path941" />
      <path
         d="M 622,4779 H 382"
         id="path943" />
      <path
         d="M 307,4554 622,4449 307,4344"
         id="path945" />
      <g
         transform="rotate(-90,479.554,5644.55)"
         id="g949">
        <text
           x="479.55399"
           y="5802.0298"
           textLength="987.25201"
           font-size="419.947px"
           lengthAdjust="spacingAndGlyphs"
           text-anchor="middle"
           opacity="0"
           id="text947">SDA</text>
      </g>
      <path
         d="m 607,6027 15,-45 v -75 l -15,-30 -15,-15 -30,-15 h -30 l -30,15 -15,15 -15,30 -15,60 -15,30 -15,15 -30,15 h -30 l -30,-15 -15,-15 -15,-30 v -75 l 15,-45"
         id="path951" />
      <path
         d="M 622,5712 H 307 v -75 l 15,-45 30,-30 30,-15 60,-15 h 45 l 60,15 30,15 30,30 15,45 v 75"
         id="path953" />
      <path
         d="M 532,5412 V 5262"
         id="path955" />
      <path
         d="M 622,5442 307,5337 622,5232"
         id="path957" />
    </g>
    <g
       style="fill:#008484;fill-opacity:0;stroke:#008484;stroke-width:39.3701;stroke-linecap:round;stroke-linejoin:round;stroke-opacity:1"
       id="g1053">
      <g
         transform="rotate(180,16029.6,1629.55)"
         id="g963">
        <text
           x="16029.6"
           y="1944.51"
           textLength="702.28699"
           font-size="419.947px"
           lengthAdjust="spacingAndGlyphs"
           text-anchor="end"
           opacity="0"
           id="text961">15</text>
      </g>
      <path
         d="m 16415,1329 h 180"
         id="path965" />
      <path
         d="m 16505,1329 v 315 l 30,-45 30,-30 30,-15"
         id="path967" />
      <path
         d="m 16130,1644 h 150 l 15,-150 -15,15 -30,15 h -75 l -30,-15 -15,-15 -15,-30 v -75 l 15,-30 15,-15 30,-15 h 75 l 30,15 15,15"
         id="path969" />
      <g
         transform="rotate(180,15029.6,1629.55)"
         id="g973">
        <text
           x="15029.6"
           y="1944.51"
           textLength="651.10602"
           font-size="419.947px"
           lengthAdjust="spacingAndGlyphs"
           text-anchor="end"
           opacity="0"
           id="text971">16</text>
      </g>
      <path
         d="m 15415,1329 h 180"
         id="path975" />
      <path
         d="m 15505,1329 v 315 l 30,-45 30,-30 30,-15"
         id="path977" />
      <path
         d="m 15145,1644 h 60 l 30,-15 15,-15 30,-45 15,-60 v -120 l -15,-30 -15,-15 -30,-15 h -60 l -30,15 -15,15 -15,30 v 75 l 15,30 15,15 30,15 h 60 l 30,-15 15,-15 15,-30"
         id="path979" />
      <g
         transform="rotate(180,14029.6,1629.55)"
         id="g983">
        <text
           x="14029.6"
           y="1944.51"
           textLength="651.10602"
           font-size="419.947px"
           lengthAdjust="spacingAndGlyphs"
           text-anchor="end"
           opacity="0"
           id="text981">17</text>
      </g>
      <path
         d="m 14415,1329 h 180"
         id="path985" />
      <path
         d="m 14505,1329 v 315 l 30,-45 30,-30 30,-15"
         id="path987" />
      <path
         d="m 14310,1644 h -210 l 135,-315"
         id="path989" />
      <g
         transform="rotate(180,13029.6,1629.55)"
         id="g993">
        <text
           x="13029.6"
           y="1944.51"
           textLength="651.10602"
           font-size="419.947px"
           lengthAdjust="spacingAndGlyphs"
           text-anchor="end"
           opacity="0"
           id="text991">18</text>
      </g>
      <path
         d="m 13415,1329 h 180"
         id="path995" />
      <path
         d="m 13505,1329 v 315 l 30,-45 30,-30 30,-15"
         id="path997" />
      <path
         d="m 13235,1509 30,15 15,15 15,30 v 15 l -15,30 -15,15 -30,15 h -60 l -30,-15 -15,-15 -15,-30 v -15 l 15,-30 15,-15 30,-15 h 60 l 30,-15 15,-15 15,-30 v -60 l -15,-30 -15,-15 -30,-15 h -60 l -30,15 -15,15 -15,30 v 60 l 15,30 15,15 30,15"
         id="path999" />
      <g
         transform="rotate(180,12029.6,1629.55)"
         id="g1003">
        <text
           x="12029.6"
           y="1944.51"
           textLength="651.10602"
           font-size="419.947px"
           lengthAdjust="spacingAndGlyphs"
           text-anchor="end"
           opacity="0"
           id="text1001">19</text>
      </g>
      <path
         d="m 12415,1329 h 180"
         id="path1005" />
      <path
         d="m 12505,1329 v 315 l 30,-45 30,-30 30,-15"
         id="path1007" />
      <path
         d="m 12265,1329 h -60 l -30,15 -15,15 -30,45 -15,60 v 120 l 15,30 15,15 30,15 h 60 l 30,-15 15,-15 15,-30 v -75 l -15,-30 -15,-15 -30,-15 h -60 l -30,15 -15,15 -15,30"
         id="path1009" />
      <g
         transform="rotate(180,11029.6,1629.55)"
         id="g1013">
        <text
           x="11029.6"
           y="1944.51"
           textLength="651.10602"
           font-size="419.947px"
           lengthAdjust="spacingAndGlyphs"
           text-anchor="end"
           opacity="0"
           id="text1011">20</text>
      </g>
      <path
         d="m 11595,1614 -15,15 -30,15 h -75 l -30,-15 -15,-15 -15,-30 v -30 l 15,-45 180,-180 h -195"
         id="path1015" />
      <path
         d="m 11220,1644 h -30 l -30,-15 -15,-15 -15,-30 -15,-60 v -75 l 15,-60 15,-30 15,-15 30,-15 h 30 l 30,15 15,15 15,30 15,60 v 75 l -15,60 -15,30 -15,15 -30,15"
         id="path1017" />
      <g
         transform="rotate(180,10019.6,1629.55)"
         id="g1021">
        <text
           x="10019.6"
           y="1944.51"
           textLength="651.10602"
           font-size="419.947px"
           lengthAdjust="spacingAndGlyphs"
           text-anchor="end"
           opacity="0"
           id="text1019">21</text>
      </g>
      <path
         d="m 10585,1614 -15,15 -30,15 h -75 l -30,-15 -15,-15 -15,-30 v -30 l 15,-45 180,-180 h -195"
         id="path1023" />
      <path
         d="m 10105,1329 h 180"
         id="path1025" />
      <path
         d="m 10195,1329 v 315 l 30,-45 30,-30 30,-15"
         id="path1027" />
      <g
         transform="rotate(180,8999.55,1629.55)"
         id="g1031">
        <text
           x="8999.5498"
           y="1944.51"
           textLength="651.10602"
           font-size="419.947px"
           lengthAdjust="spacingAndGlyphs"
           text-anchor="end"
           opacity="0"
           id="text1029">22</text>
      </g>
      <path
         d="m 9565,1614 -15,15 -30,15 h -75 l -30,-15 -15,-15 -15,-30 v -30 l 15,-45 180,-180 h -195"
         id="path1033" />
      <path
         d="m 9265,1614 -15,15 -30,15 h -75 l -30,-15 -15,-15 -15,-30 v -30 l 15,-45 180,-180 h -195"
         id="path1035" />
      <g
         transform="rotate(180,8029.55,1629.55)"
         id="g1039">
        <text
           x="8029.5498"
           y="1944.51"
           textLength="651.10602"
           font-size="419.947px"
           lengthAdjust="spacingAndGlyphs"
           text-anchor="end"
           opacity="0"
           id="text1037">23</text>
      </g>
      <path
         d="m 8595,1614 -15,15 -30,15 h -75 l -30,-15 -15,-15 -15,-30 v -30 l 15,-45 180,-180 h -195"
         id="path1041" />
      <path
         d="m 8310,1644 h -195 l 105,-120 h -45 l -30,-15 -15,-15 -15,-30 v -75 l 15,-30 15,-15 30,-15 h 90 l 30,15 15,15"
         id="path1043" />
      <g
         transform="rotate(180,6029.55,1629.55)"
         id="g1047">
        <text
           x="6029.5498"
           y="1944.51"
           textLength="651.10602"
           font-size="419.947px"
           lengthAdjust="spacingAndGlyphs"
           text-anchor="end"
           opacity="0"
           id="text1045">25</text>
      </g>
      <path
         d="m 6595,1614 -15,15 -30,15 h -75 l -30,-15 -15,-15 -15,-30 v -30 l 15,-45 180,-180 h -195"
         id="path1049" />
      <path
         d="m 6130,1644 h 150 l 15,-150 -15,15 -30,15 h -75 l -30,-15 -15,-15 -15,-30 v -75 l 15,-30 15,-15 30,-15 h 75 l 30,15 15,15"
         id="path1051" />
    </g>
    <g
       style="fill:#008484;fill-opacity:0;stroke:#008484;stroke-width:78.7402;stroke-linecap:round;stroke-linejoin:round;stroke-opacity:1"
       id="g1057">
      <circle
         cx="12379.6"
         cy="3654.55"
         r="55.9016"
         id="circle1055" />
    </g>
    <g
       style="fill:#008484;fill-opacity:0;stroke:#008484;stroke-width:39.3701;stroke-linecap:round;stroke-linejoin:round;stroke-opacity:1"
       id="g1081">
      <text
         x="2329.55"
         y="6987.0298"
         textLength="351.14401"
         font-size="419.947px"
         lengthAdjust="spacingAndGlyphs"
         text-anchor="middle"
         opacity="0"
         id="text1059">0</text>
      <path
         d="m 2314,6657 h 30 l 30,15 15,15 15,30 15,60 v 75 l -15,60 -15,30 -15,15 -30,15 h -30 l -30,-15 -15,-15 -15,-30 -15,-60 v -75 l 15,-60 15,-30 15,-15 30,-15"
         id="path1061" />
      <text
         x="14679.6"
         y="6944.5098"
         textLength="651.10602"
         font-size="419.947px"
         lengthAdjust="spacingAndGlyphs"
         text-anchor="end"
         opacity="0"
         id="text1063">12</text>
      <path
         d="m 14294,6929 h -180"
         id="path1065" />
      <path
         d="m 14204,6929 v -315 l -30,45 -30,30 -30,15"
         id="path1067" />
      <path
         d="m 14413,6644 15,-15 30,-15 h 75 l 30,15 15,15 15,30 v 30 l -15,45 -180,180 h 195"
         id="path1069" />
      <text
         x="13654.6"
         y="6944.5098"
         textLength="651.10602"
         font-size="419.947px"
         lengthAdjust="spacingAndGlyphs"
         text-anchor="end"
         opacity="0"
         id="text1071">11</text>
      <path
         d="m 13269,6929 h -180"
         id="path1073" />
      <path
         d="m 13179,6929 v -315 l -30,45 -30,30 -30,15"
         id="path1075" />
      <path
         d="m 13568,6929 h -180"
         id="path1077" />
      <path
         d="m 13478,6929 v -315 l -30,45 -30,30 -30,15"
         id="path1079" />
    </g>
    <g
       style="fill:#008484;fill-opacity:0;stroke:#008484;stroke-width:78.7402;stroke-linecap:round;stroke-linejoin:round;stroke-opacity:1"
       id="g1125">
      <g
         transform="rotate(-90,5679.55,5529.55)"
         id="g1085">
        <text
           x="5679.5498"
           y="5529.5498"
           textLength="1194.04"
           font-size="533.333px"
           lengthAdjust="spacingAndGlyphs"
           text-anchor="start"
           opacity="0"
           id="text1083">ADR</text>
      </g>
      <path
         d="M 5546,5402 V 5211"
         id="path1087" />
      <path
         d="m 5660,5440 -400,-134 400,-133"
         id="path1089" />
      <path
         d="m 5660,5040 h -400 v -95 l 19,-58 38,-38 38,-19 76,-19 h 58 l 76,19 38,19 38,38 19,58 v 95"
         id="path1091" />
      <path
         d="m 5660,4411 -190,134"
         id="path1093" />
      <path
         d="m 5660,4640 h -400 v -153 l 19,-38 19,-19 38,-19 h 57 l 38,19 19,19 20,38 v 153"
         id="path1095" />
      <g
         transform="rotate(-90,479.554,2644.55)"
         id="g1099">
        <text
           x="479.55399"
           y="2802.03"
           textLength="897.263"
           font-size="419.947px"
           lengthAdjust="spacingAndGlyphs"
           text-anchor="middle"
           opacity="0"
           id="text1097">EVT</text>
      </g>
      <path
         d="M 457,2967 V 2862"
         id="path1101" />
      <path
         d="m 622,2817 v 150 H 307 v -150"
         id="path1103" />
      <path
         d="M 307,2727 622,2622 307,2517"
         id="path1105" />
      <path
         d="M 307,2457 V 2277"
         id="path1107" />
      <path
         d="M 622,2367 H 307"
         id="path1109" />
      <g
         transform="rotate(-90,479.554,1644.55)"
         id="g1113">
        <text
           x="479.55399"
           y="1802.03"
           textLength="957.25598"
           font-size="419.947px"
           lengthAdjust="spacingAndGlyphs"
           text-anchor="middle"
           opacity="0"
           id="text1111">RST</text>
      </g>
      <path
         d="M 622,1817 472,1922"
         id="path1115" />
      <path
         d="M 622,1997 H 307 v -120 l 15,-30 15,-15 30,-15 h 45 l 30,15 15,15 15,30 v 120"
         id="path1117" />
      <path
         d="m 607,1697 15,-45 v -75 l -15,-30 -15,-15 -30,-15 h -30 l -30,15 -15,15 -15,30 -15,60 -15,30 -15,15 -30,15 h -30 l -30,-15 -15,-15 -15,-30 v -75 l 15,-45"
         id="path1119" />
      <path
         d="M 307,1427 V 1247"
         id="path1121" />
      <path
         d="M 622,1337 H 307"
         id="path1123" />
    </g>
    <g
       style="fill:#008484;fill-opacity:0;stroke:#008484;stroke-width:39.3701;stroke-linecap:round;stroke-linejoin:round;stroke-opacity:1"
       id="g1181">
      <text
         x="3344.55"
         y="6987.0298"
         textLength="402.32501"
         font-size="419.947px"
         lengthAdjust="spacingAndGlyphs"
         text-anchor="middle"
         opacity="0"
         id="text1127">1</text>
      <path
         d="M 3434,6972 H 3254"
         id="path1129" />
      <path
         d="m 3344,6972 v -315 l -30,45 -30,30 -30,15"
         id="path1131" />
      <text
         x="4529.5498"
         y="6994.5098"
         textLength="351.14401"
         font-size="419.947px"
         lengthAdjust="spacingAndGlyphs"
         text-anchor="end"
         opacity="0"
         id="text1133">2</text>
      <path
         d="m 4263,6694 15,-15 30,-15 h 75 l 30,15 15,15 15,30 v 30 l -15,45 -180,180 h 195"
         id="path1135" />
      <text
         x="5529.5498"
         y="6994.5098"
         textLength="351.14401"
         font-size="419.947px"
         lengthAdjust="spacingAndGlyphs"
         text-anchor="end"
         opacity="0"
         id="text1137">3</text>
      <path
         d="m 5248,6664 h 195 l -105,120 h 45 l 30,15 15,15 15,30 v 75 l -15,30 -15,15 -30,15 h -90 l -30,-15 -15,-15"
         id="path1139" />
      <text
         x="6529.5498"
         y="6994.5098"
         textLength="351.14401"
         font-size="419.947px"
         lengthAdjust="spacingAndGlyphs"
         text-anchor="end"
         opacity="0"
         id="text1141">4</text>
      <path
         d="m 6413,6769 v 210"
         id="path1143" />
      <path
         d="m 6338,6649 -75,225 h 195"
         id="path1145" />
      <text
         x="7529.5498"
         y="6994.5098"
         textLength="351.14401"
         font-size="419.947px"
         lengthAdjust="spacingAndGlyphs"
         text-anchor="end"
         opacity="0"
         id="text1147">5</text>
      <path
         d="m 7428,6664 h -150 l -15,150 15,-15 30,-15 h 75 l 30,15 15,15 15,30 v 75 l -15,30 -15,15 -30,15 h -75 l -30,-15 -15,-15"
         id="path1149" />
      <text
         x="8504.5498"
         y="6944.5098"
         textLength="351.14401"
         font-size="419.947px"
         lengthAdjust="spacingAndGlyphs"
         text-anchor="end"
         opacity="0"
         id="text1151">6</text>
      <path
         d="m 8388,6614 h -60 l -30,15 -15,15 -30,45 -15,60 v 120 l 15,30 15,15 30,15 h 60 l 30,-15 15,-15 15,-30 v -75 l -15,-30 -15,-15 -30,-15 h -60 l -30,15 -15,15 -15,30"
         id="path1153" />
      <text
         x="9504.5498"
         y="6944.5098"
         textLength="351.14401"
         font-size="419.947px"
         lengthAdjust="spacingAndGlyphs"
         text-anchor="end"
         opacity="0"
         id="text1155">7</text>
      <path
         d="m 9223,6614 h 210 l -135,315"
         id="path1157" />
      <text
         x="11504.6"
         y="6944.5098"
         textLength="351.14401"
         font-size="419.947px"
         lengthAdjust="spacingAndGlyphs"
         text-anchor="end"
         opacity="0"
         id="text1159">9</text>
      <path
         d="m 11268,6929 h 60 l 30,-15 15,-15 30,-45 15,-60 v -120 l -15,-30 -15,-15 -30,-15 h -60 l -30,15 -15,15 -15,30 v 75 l 15,30 15,15 30,15 h 60 l 30,-15 15,-15 15,-30"
         id="path1161" />
      <text
         x="12679.6"
         y="6944.5098"
         textLength="651.10602"
         font-size="419.947px"
         lengthAdjust="spacingAndGlyphs"
         text-anchor="end"
         opacity="0"
         id="text1163">10</text>
      <path
         d="m 12294,6929 h -180"
         id="path1165" />
      <path
         d="m 12204,6929 v -315 l -30,45 -30,30 -30,15"
         id="path1167" />
      <path
         d="m 12488,6614 h 30 l 30,15 15,15 15,30 15,60 v 75 l -15,60 -15,30 -15,15 -30,15 h -30 l -30,-15 -15,-15 -15,-30 -15,-60 v -75 l 15,-60 15,-30 15,-15 30,-15"
         id="path1169" />
      <g
         transform="rotate(180,7029.55,1629.55)"
         id="g1173">
        <text
           x="7029.5498"
           y="1944.51"
           textLength="651.10602"
           font-size="419.947px"
           lengthAdjust="spacingAndGlyphs"
           text-anchor="end"
           opacity="0"
           id="text1171">24</text>
      </g>
      <path
         d="m 7595,1614 -15,15 -30,15 h -75 l -30,-15 -15,-15 -15,-30 v -30 l 15,-45 180,-180 h -195"
         id="path1175" />
      <path
         d="M 7145,1539 V 1329"
         id="path1177" />
      <path
         d="m 7220,1659 75,-225 h -195"
         id="path1179" />
    </g>
    <g
       style="fill:#008484;fill-opacity:1;stroke:#008484;stroke-width:3.93701;stroke-linecap:round;stroke-linejoin:round;stroke-opacity:1"
       id="g1235">
      <path
         style="fill:#008484;fill-opacity:1;fill-rule:evenodd;stroke:#008484;stroke-width:3.93701;stroke-linecap:round;stroke-linejoin:round;stroke-opacity:1"
         d="m 2137.2,6344.34 h 231.83 v -84.58 h 62.65 V 6407 H 2137.2 v 84.58 h -62.66 v -234.96 h 62.66 z"
         id="path1183" />
      <path
         style="fill:#008484;fill-opacity:1;fill-rule:evenodd;stroke:#008484;stroke-width:3.93701;stroke-linecap:round;stroke-linejoin:round;stroke-opacity:1"
         d="m 15506.2,1861.95 4.5,7.19 1.2,5.26 -0.4,0.85 -2.5,3.07 -5.9,7.39 -9.1,11.16 -11.7,14.38 -13.9,17.06 -15.7,19.19 -16.9,20.8 -4.2,5.17 -17.1,21.07 -15.7,19.63 -13.9,17.67 -11.7,15.15 -9,12.08 -6,8.48 -2.6,4.33 v 0.38 l 2.2,3.18 5.8,7.52 8.8,11.32 11.6,14.59 13.8,17.32 15.7,19.54 17.1,21.22 8.3,10.23 20.3,25.11 16.6,20.72 13.3,16.77 10.4,13.28 7.6,10.22 5.3,7.61 3.2,5.45 1.6,3.73 0.1,2.46 -0.5,1.25 -2.8,3.57 -6.4,7.84 -9.4,11.58 -12.1,14.75 -14.3,17.38 -16,19.45 -17.2,20.98 -5.4,6.48 -19.9,24.23 -16.3,19.87 -13,16 -10,12.59 -7.3,9.65 -5,7.18 -3.1,5.18 -1.5,3.64 -0.2,2.57 0.7,1.98 0.1,0.26 2.9,3.82 6.3,8.13 9.4,11.86 12,15.06 14.2,17.67 15.9,19.75 17.2,21.25 5.9,7.27 19.9,24.64 16.3,20.25 13,16.32 10,12.85 7.3,9.83 5,7.27 3.1,5.17 1.3,3.51 v 2.32 l -0.7,1.27 -2.9,3.51 -6.4,7.81 -9.5,11.55 -12.2,14.74 -14.2,17.39 -16,19.47 -17.3,21.02 -5.3,6.47 -19.9,24.36 -16.3,20.01 -12.9,16.11 -10,12.69 -7.3,9.72 -5,7.22 -3.1,5.18 -1.4,3.61 -0.1,2.49 0.6,1.55 2.8,3.73 6.2,8.04 9.4,11.79 12,14.98 14.1,17.62 15.9,19.71 17.2,21.23 6.1,7.52 79.8,98.42 -5.7,7.15 -3.2,3.98 -6.7,8.23 -9.8,11.92 -12.3,15.03 -14.4,17.57 -16,19.52 -17.2,20.9 -2.8,3.33 -17.1,20.87 -15.8,19.42 -14.1,17.44 -11.9,14.91 -9.4,11.83 -6.3,8.2 -2.8,4.02 -0.1,0.25 1.7,3.13 5.3,7.45 8.5,11.26 11.2,14.54 13.6,17.3 15.5,19.53 17,21.25 9.6,11.81 83.2,102.66 -5.6,7.17 -3.3,3.97 -6.7,8.24 -9.8,11.92 -12.3,15.02 -14.4,17.56 -16.1,19.51 -17.2,20.89 -2.7,3.27 -17.1,20.87 -15.7,19.48 -14,17.51 -11.9,15.01 -9.2,11.96 -6.1,8.34 -2.6,4.19 -0.1,0.28 1.9,3.31 5.5,7.63 8.6,11.43 11.3,14.69 13.6,17.43 15.6,19.62 17.1,21.3 8.9,11.07 82.5,102.06 -14.8,17.86 -29.8,36.15 -25.9,31.6 -22.4,27.28 -18.9,23.2 -15.7,19.38 -12.7,15.79 -9.8,12.46 -7.2,9.36 -4.8,6.52 -2.5,3.92 -0.5,1.36 1.9,3.32 5.5,7.64 8.6,11.42 11.3,14.67 13.6,17.39 15.5,19.57 17,21.21 8,9.92 17.5,21.71 16.3,20.21 14.5,18.21 12.4,15.67 9.9,12.61 6.9,9.04 3.6,4.93 0.4,0.75 -1.9,2.87 -5.5,7.17 -8.7,10.97 -11.4,14.23 -13.7,16.98 -15.6,19.2 -17.1,20.91 -7.6,9.27 -17.6,21.51 -16.4,20.05 -14.6,18.07 -12.6,15.56 -10.1,12.52 -7,8.96 -3.7,4.88 -0.5,0.69 1.6,3.24 5,7.32 7.9,10.66 10.1,13.24 12,15.07 4.8,5.98 16.2,20.11 18.4,22.75 19,23.4 17.8,22.07 12.1,14.92 41.1,50.8 -82,99.57 -17.7,21.58 -16.5,20.15 -14.8,18.2 -12.7,15.72 -10.2,12.7 -7.2,9.16 -3.9,5.09 -0.5,0.8 1.4,3.57 4.7,7.52 7.6,10.62 9.8,12.88 9.8,12.41 12.7,15.64 15.4,19.05 17,21 17.4,21.49 16.5,20.52 4.6,5.68 48.7,60.22 -80.2,97.28 -17.6,21.41 -16.5,20.08 -14.8,18.17 -12.8,15.73 -10.3,12.73 -7.4,9.18 -3.9,5.08 -0.5,0.68 -0.5,1.95 0.7,2.95 2.2,4.4 4,6.32 6.2,8.67 8.7,11.48 11.5,14.75 14.7,18.47 18.2,22.64 10,12.47 17.5,21.61 16.3,20.23 14.8,18.29 12.8,15.8 10.3,12.77 7.5,9.17 4.1,5.03 0.6,0.67 0.8,1.69 -0.3,2.51 -1.6,3.77 -3.3,5.49 -5.4,7.67 -7.8,10.3 -10.4,13.39 -13.5,16.93 -16.9,20.93 -17.1,21.14 -17.5,21.65 -16.4,20.31 -14.8,18.41 -12.8,15.97 -10.3,12.96 -7.4,9.4 -4.1,5.3 -0.5,0.77 -0.7,1.92 0.3,2.66 1.7,3.84 3.4,5.51 5.4,7.62 7.7,10.2 10.5,13.25 13.5,16.77 16.9,20.73 16.7,20.44 17.6,21.37 16.4,19.99 14.8,18.06 12.8,15.59 10.3,12.55 7.4,8.98 4,4.84 0.5,0.57 0.8,1.7 -0.3,2.54 -1.7,3.84 -3.5,5.59 -5.6,7.78 -8,10.45 -10.8,13.55 -13.8,17.12 -17.3,21.14 -15.2,18.42 -17.6,21.4 -16.4,20.08 -14.9,18.2 -12.8,15.76 -10.3,12.76 -7.3,9.22 -3.9,5.11 -0.5,0.66 -0.7,1.94 0.3,2.64 1.6,3.81 3.3,5.45 5.3,7.56 7.7,10.15 10.3,13.19 13.4,16.72 16.8,20.7 15.8,19.34 17.2,21.13 16,19.67 14.4,17.67 12.3,15.12 9.8,12.03 6.8,8.4 3.5,4.23 0.2,0.34 -0.2,4.46 -4.3,6.96 -1.4,1.69 -8.5,9.77 -83.1,-101.81 -17.9,-22.05 -16.9,-20.77 -15.4,-18.94 -13.4,-16.54 -11.1,-13.61 -8.1,-10.11 -4.9,-6.08 -1,-1.28 -5.7,-7.58 79.9,-96.79 17.6,-21.38 16.4,-20.05 14.9,-18.17 12.7,-15.72 10.3,-12.74 7.4,-9.18 3.9,-5.08 0.4,-0.65 0.7,-1.91 -0.4,-2.66 -1.7,-3.86 -3.4,-5.52 -5.4,-7.64 -7.8,-10.21 -10.4,-13.25 -13.6,-16.75 -16.9,-20.69 -18.1,-22.07 -17.6,-21.46 -16.5,-20.03 -14.8,-18.06 -12.7,-15.56 -10.3,-12.52 -7.3,-8.96 -3.9,-4.85 -0.6,-0.65 1,-3.26 4.8,-7.54 8.5,-11.91 12.5,-16.35 16.4,-20.87 20.3,-25.48 13.3,-16.45 17.5,-21.62 16.4,-20.28 14.8,-18.39 12.8,-15.95 10.3,-12.95 7.3,-9.39 4.1,-5.27 0.5,-0.74 0.7,-1.91 -0.2,-2.53 -1.4,-3.63 -3,-5.18 -4.9,-7.2 -7.2,-9.67 -9.8,-12.62 -12.7,-16.02 -15.9,-19.88 -19.5,-24.21 -2.9,-3.62 -17.6,-21.72 -16.3,-20.27 -14.8,-18.29 -12.7,-15.77 -10.2,-12.73 -7.4,-9.14 -4,-5.03 -0.6,-0.75 1.1,-3.38 5.2,-7.93 9.2,-12.49 13.2,-17.09 17.3,-21.72 21.5,-26.38 12.9,-15.76 17.8,-21.68 16.5,-20.19 14.8,-18.19 12.6,-15.68 10.1,-12.66 7.1,-9.11 3.8,-5.06 0.5,-0.84 -1.9,-2.86 -5.5,-7.19 -8.5,-11.01 -11.3,-14.29 -13.6,-17.07 -15.5,-19.31 -17,-21.04 -7.7,-9.54 -17.5,-21.69 -16.4,-20.23 -14.7,-18.25 -12.6,-15.73 -10.2,-12.68 -7.2,-9.1 -3.9,-4.99 -0.6,-0.74 1.5,-3.08 5.1,-7.38 8.3,-11.15 11.1,-14.41 13.6,-17.16 15.5,-19.38 17.2,-21.1 7.4,-9.01 17.7,-21.55 16.4,-20.11 14.8,-18.17 12.7,-15.68 10.2,-12.67 7.1,-9.12 3.8,-5.05 0.5,-0.78 -1.6,-3.19 -5.1,-7.5 -8.3,-11.29 -11.1,-14.53 -13.4,-17.26 -15.4,-19.44 -16.9,-21.1 -7.7,-9.48 -17.5,-21.69 -16.4,-20.24 -14.7,-18.27 -12.6,-15.76 -10.2,-12.71 -7.3,-9.14 -3.9,-5.03 -0.6,-0.76 1.5,-3.27 5.2,-7.69 8.7,-11.78 12,-15.51 14.9,-18.89 17.7,-21.94 20.2,-24.63 0.6,-0.8 17.8,-21.64 16.5,-20.17 14.8,-18.17 12.6,-15.67 10.1,-12.63 7.1,-9.1 3.7,-5.04 0.5,-0.83 -1.9,-2.87 -5.5,-7.21 -8.6,-11.04 -11.3,-14.35 -13.6,-17.14 -15.6,-19.42 -17.1,-21.18 -9.4,-11.7 -19.8,-24.5 -17.4,-22.01 -15,-19.14 -12.1,-15.89 -9,-12.27 -5.6,-8.26 -2,-3.88 0.1,-0.17 2.4,-3.13 6,-7.44 9.1,-11.21 11.7,-14.45 14,-17.15 15.9,-19.32 17.2,-20.96 6.9,-8.34 17.5,-21.41 16.1,-19.99 14.3,-18.04 12.2,-15.55 9.6,-12.54 6.5,-8.99 3.1,-4.93 0.1,-0.7 -2.2,-3.18 -5.7,-7.51 -8.9,-11.3 -11.6,-14.58 -13.8,-17.32 -15.7,-19.52 -17.1,-21.21 -8.1,-10.11 -17.7,-21.98 -16.3,-20.45 -14.3,-18.39 -12.2,-15.82 -9.5,-12.75 -6.4,-9.16 -3.1,-5.05 -0.2,-0.78 2.4,-3.1 6,-7.39 9,-11.17 11.8,-14.41 14,-17.12 15.8,-19.3 17.2,-20.94 6.9,-8.33 17.5,-21.37 16.2,-19.88 14.5,-17.87 12.4,-15.34 9.8,-12.29 6.8,-8.71 3.4,-4.61 0.3,-0.57 -1.9,-2.85 -5.5,-7.2 -8.6,-11.02 -11.3,-14.33 -13.6,-17.14 -15.6,-19.41 -17,-21.18 -9.6,-11.82 -17.6,-21.92 -16.3,-20.48 -14.5,-18.51 -12.3,-16.01 -9.8,-13.02 -6.8,-9.48 -3.4,-5.43 -0.3,-1.07 2.3,-3.06 6,-7.36 9,-11.14 11.8,-14.39 14,-17.11 15.8,-19.3 17.2,-20.96 7.3,-8.86 20.3,-24.63 16.6,-20.27 13.2,-16.37 10.2,-12.94 7.6,-9.95 5.2,-7.43 3.3,-5.35 1.6,-3.75 0.3,-2.59 -0.7,-1.88 -2.8,-3.74 -6.3,-8.05 -9.3,-11.81 -12,-14.99 -14.1,-17.64 -15.9,-19.72 -17.2,-21.25 -6,-7.44 -23,-28.59 -18.9,-23.87 -14.8,-19.18 -10.8,-14.51 -6.7,-9.87 -2.7,-5.24 v -0.79 l 2.5,-3.15 6.1,-7.45 9.2,-11.23 11.8,-14.46 14.1,-17.17 15.9,-19.34 17.2,-20.98 6.8,-8.26 20.1,-24.51 16.5,-20.15 13.1,-16.26 10.2,-12.82 7.5,-9.86 5.1,-7.36 3.3,-5.31 1.6,-3.74 0.3,-2.63 -0.7,-1.97 -0.2,-0.3 -2.8,-3.8 -6.3,-8.11 -9.4,-11.85 -12,-15.03 -14.2,-17.66 -15.9,-19.73 -17.2,-21.24 -5.9,-7.25 -22.4,-27.81 -18.4,-23.19 -14.5,-18.7 -10.8,-14.32 -7,-10.09 -3.3,-5.96 -0.3,-1.8 2.6,-3.15 6.1,-7.47 9.2,-11.24 11.8,-14.48 14.1,-17.18 15.9,-19.35 17.3,-20.99 6.7,-8.22 20.2,-24.6 16.5,-20.24 13.1,-16.34 10.2,-12.9 7.5,-9.91 5.2,-7.38 3.1,-5.32 1.6,-3.69 0.2,-2.54 -0.6,-1.58 -2.8,-3.72 -6.3,-8.02 -9.3,-11.77 -12,-14.97 -14.1,-17.61 -15.9,-19.71 -17.2,-21.23 -6.1,-7.61 -22.2,-27.49 -18.2,-22.9 -14.4,-18.5 -10.8,-14.27 -7.1,-10.21 -3.8,-6.34 -0.5,-2.55 2.6,-3.15 6,-7.49 9.3,-11.3 11.9,-14.62 14.2,-17.4 16,-19.67 17.6,-21.43 11.7,-14.41 86.4,-105.71 z"
         id="path1185" />
      <path
         style="fill:#008484;fill-opacity:1;fill-rule:evenodd;stroke:#008484;stroke-width:3.93701;stroke-linecap:round;stroke-linejoin:round;stroke-opacity:1"
         d="m 16899.1,5839.96 h -833.3 v 488.72 h -191.1 v -689.23 h 1024.4 z"
         id="path1187" />
      <path
         style="fill:#008484;fill-opacity:1;fill-rule:evenodd;stroke:#008484;stroke-width:3.93701;stroke-linecap:round;stroke-linejoin:round;stroke-opacity:1"
         d="m 2137.2,5984.07 h 231.83 v -84.59 h 62.65 v 150.38 H 2137.2 v 84.58 h -62.66 v -238.09 l 10.18,-0.03 8.52,-0.31 11.94,-0.78 10.87,-0.93 21.15,-1.99 z"
         id="path1189" />
      <path
         style="fill:#008484;fill-opacity:1;fill-rule:evenodd;stroke:#008484;stroke-width:3.93701;stroke-linecap:round;stroke-linejoin:round;stroke-opacity:1"
         d="m 2137.2,5617.52 h 131.58 v -78.32 h 62.65 v 140.98 h -191.1 v 75.19 h -62.66 v -225.56 h 59.53 z"
         id="path1191" />
      <path
         style="fill:#008484;fill-opacity:1;fill-rule:evenodd;stroke:#008484;stroke-width:3.93701;stroke-linecap:round;stroke-linejoin:round;stroke-opacity:1"
         d="m 2418.8,5610.82 14.39,7.6 10.48,11.81 5.84,15.3 0.97,10.31 -0.7,9.98 -2.91,7.66 -6.34,8.28 -1.32,1.48 -13.74,11.36 -15.4,6.18 -15.86,0.73 -14.98,-4.88 -13.31,-10.19 -8.4,-12.59 -3.77,-13.9 0.59,-14.14 4.69,-13.29 8.53,-11.38 12.08,-8.37 15.38,-4.3 6.22,-0.34 z"
         id="path1193" />
      <path
         style="fill:#008484;fill-opacity:1;fill-rule:evenodd;stroke:#008484;stroke-width:3.93701;stroke-linecap:round;stroke-linejoin:round;stroke-opacity:1"
         d="m 2140.33,5203.99 h 131.58 v -50.12 h 56.39 v 109.64 h -17.23 l -11.24,0.96 -5.7,2.63 0.06,3.96 6.04,4.95 2.23,1.22 14.71,11.04 10.35,15.34 5.8,19.29 1.25,16.12 -1.38,20.35 -4.57,16.41 -8.41,14.26 -7.51,8.63 -9.89,8.99 -10.29,6.3 -12.3,4.23 -15.89,2.77 -13.14,1.32 -22.28,1.85 -1.86,-10.6 -1.24,-8.57 -1.44,-12.14 -1.29,-12.61 -2.1,-22.71 9.02,-0.07 12.35,-2.15 12.49,-5.44 10.32,-7.51 4.98,-6.36 4.36,-14.34 -0.11,-15.62 -4.46,-14.28 -2.02,-3.42 -6.2,-7.45 -7.8,-5.58 -10.31,-3.95 -13.73,-2.57 -18.08,-1.42 -23.32,-0.51 -1.93,-0.01 -46.21,-0.17 v 59.52 h -62.66 v -175.44 h 62.66 z"
         id="path1195" />
      <path
         style="fill:#008484;fill-opacity:1;fill-rule:evenodd;stroke:#008484;stroke-width:3.93701;stroke-linecap:round;stroke-linejoin:round;stroke-opacity:1"
         d="m 16899.1,4887.57 h -833.3 v 488.73 h -191.1 v -692.36 h 1024.4 z"
         id="path1197" />
      <path
         style="fill:#008484;fill-opacity:1;fill-rule:evenodd;stroke:#008484;stroke-width:3.93701;stroke-linecap:round;stroke-linejoin:round;stroke-opacity:1"
         d="m 15097.7,5197.72 h -75.2 v -112.78 h -350.8 v -81.45 h 350.8 v -112.78 l 16.5,-0.02 12.3,-0.34 14.8,-0.84 10.5,-0.84 21.1,-2 z"
         id="path1199" />
      <path
         style="fill:#008484;fill-opacity:1;fill-rule:evenodd;stroke:#008484;stroke-width:3.93701;stroke-linecap:round;stroke-linejoin:round;stroke-opacity:1"
         d="m 2328.3,4878.18 h 103.38 v 62.65 H 2328.3 v 87.72 h -62.66 v -87.85 l -63.44,0.85 -63.44,0.85 -0.87,39.94 -0.88,39.95 h -62.83 l 0.96,-62.92 0.97,-62.92 10.23,-9.14 10.23,-9.13 h 169.07 v -78.32 h 62.66 z"
         id="path1201" />
      <path
         style="fill:#008484;fill-opacity:1;fill-rule:evenodd;stroke:#008484;stroke-width:3.93701;stroke-linecap:round;stroke-linejoin:round;stroke-opacity:1"
         d="m 15097.7,4687.07 h -75.2 v -191.1 h -100.2 v 191.1 h -75.2 v -191.1 h -178.6 v -81.45 h 96.6 l 27.6,-0.07 32.1,-0.18 35.1,-0.29 36.3,-0.37 35.8,-0.44 33.7,-0.49 14,-0.24 118,-2.07 z"
         id="path1203" />
      <path
         style="fill:#008484;fill-opacity:1;fill-rule:evenodd;stroke:#008484;stroke-width:3.93701;stroke-linecap:round;stroke-linejoin:round;stroke-opacity:1"
         d="m 2036.31,4457.78 8.98,2.97 14.01,4.62 18.57,6.1 22.65,7.44 26.27,8.63 29.43,9.65 32.11,10.53 34.33,11.25 36.08,11.82 4.33,1.41 36.23,11.89 34.52,11.36 32.32,10.68 29.68,9.84 26.57,8.86 22.98,7.71 18.94,6.4 14.44,4.95 9.46,3.33 4.02,1.57 0.1,0.06 0.06,3.54 -1.32,7.88 -2.29,10.56 -2.85,11.58 -3,10.93 -2.73,8.63 -2.05,4.66 -0.21,0.24 -3.03,-0.83 -8.53,-2.65 -13.57,-4.31 -18.16,-5.84 -22.3,-7.21 -25.97,-8.44 -29.2,-9.52 -31.97,-10.45 -34.29,-11.24 -36.15,-11.87 -8.83,-2.9 -36.55,-12.04 -34.81,-11.48 -32.6,-10.77 -29.94,-9.92 -26.83,-8.91 -23.27,-7.74 -19.23,-6.44 -14.76,-4.97 -9.82,-3.36 -4.42,-1.59 -0.21,-0.1 -0.12,-3.72 1.65,-7.78 2.92,-10.29 3.65,-11.25 3.87,-10.67 3.59,-8.55 2.77,-4.87 0.97,-0.56 z"
         id="path1205" />
      <path
         style="fill:#008484;fill-opacity:1;fill-rule:evenodd;stroke:#008484;stroke-width:3.93701;stroke-linecap:round;stroke-linejoin:round;stroke-opacity:1"
         d="m 16068.9,3969.65 h 636 v -241.22 h 194.2 v 682.95 h -194.2 v -241.22 h -636 v 241.22 h -194.2 v -682.95 h 194.2 z"
         id="path1207" />
      <path
         style="fill:#008484;fill-opacity:1;fill-rule:evenodd;stroke:#008484;stroke-width:3.93701;stroke-linecap:round;stroke-linejoin:round;stroke-opacity:1"
         d="m 2224.18,4075.24 18.18,1.99 15.19,3.91 13.79,6.27 14,9.05 2.6,1.91 18.64,16.98 13.68,19.66 8.94,22.86 4.39,26.58 0.27,27.2 -1,15.43 -1.57,11.38 -2.66,9.52 -4.25,9.88 -2.14,4.32 -11.78,20.49 -12.53,15.47 -14.74,11.66 -18.4,9.07 -17.73,6.01 -15.1,2.99 -18.71,1.53 -19.82,0.07 -18.41,-1.43 -12.76,-2.41 -22.4,-8.08 -19.25,-11.54 -11.06,-9.08 -17.09,-19.36 -11.96,-22.81 -6.87,-26.34 -1.81,-29.9 h 59.16 l 0.29,13.11 1.29,9.23 2.86,7.71 4.55,7.87 12.47,14.12 16.17,10.07 18.59,5.75 19.7,1.13 19.51,-3.75 13.25,-5.9 15.21,-11.04 10.06,-13.19 5.48,-16.41 1.5,-18.49 -1.5,-20.18 -4.97,-15.74 -9.13,-12.49 -13.98,-10.41 -7.11,-3.85 -10.77,-4.15 -12.65,-2.05 -12.64,-0.43 -12.73,0.31 -8.98,1.36 -7.76,3.09 -8.94,5.42 -14.07,11.24 -9.19,12.69 -4.99,15.54 -1.52,19.44 h -59.16 l -0.01,-0.08 0.46,-10.06 1.62,-15.49 2.97,-12.73 5.21,-13.18 3.51,-7.35 11.63,-20.31 12.81,-15.35 15.32,-11.69 16.79,-8.38 10,-3.93 8.68,-2.61 9.13,-1.56 11.36,-0.77 15.39,-0.27 4.73,-0.03 z"
         id="path1209" />
      <path
         style="fill:#008484;fill-opacity:1;fill-rule:evenodd;stroke:#008484;stroke-width:3.93701;stroke-linecap:round;stroke-linejoin:round;stroke-opacity:1"
         d="m 14677.1,3871.46 4.5,1.08 10,2.41 15.1,3.61 19.6,4.69 23.6,5.64 27,6.46 30,7.16 32.4,7.73 34.3,8.18 17.4,4.13 205.2,48.91 v 153.03 l -205.2,48.91 -35.1,8.36 -33.4,7.96 -31.2,7.46 -28.6,6.82 -25.3,6.05 -21.6,5.17 -17.4,4.15 -12.6,3.02 -7.2,1.74 -1.5,0.36 -8.6,2.18 v -86.46 l 89.3,-18.85 v -16.87 h 79.9 l 8.6,-2.21 5.1,-1.22 10.4,-2.42 14.9,-3.43 18.6,-4.26 21.5,-4.91 23.5,-5.37 13.3,-3.02 28.6,-6.58 23,-5.44 17.9,-4.44 13.2,-3.59 9.1,-2.88 5.4,-2.29 2.3,-1.85 0.2,-0.38 -1.7,-4.22 -7.2,-3.39 -2.1,-0.6 -6.1,-1.55 -11.1,-2.78 -15.3,-3.78 -18.4,-4.52 -20.5,-5.04 -21.7,-5.29 -21.8,-5.33 -21,-5.1 -19.2,-4.65 -16.4,-3.95 -12.5,-3 -2.6,-0.61 -18,-4.25 v 112.35 h -79.9 v -129.9 l -44.6,-9.42 -44.7,-9.42 v -86.47 z"
         id="path1211" />
      <path
         style="fill:#008484;fill-opacity:1;fill-rule:evenodd;stroke:#008484;stroke-width:3.93701;stroke-linecap:round;stroke-linejoin:round;stroke-opacity:1"
         d="m 2137.2,3806.75 h 131.58 v -78.32 h 62.65 v 140.97 h -191.1 v 75.19 h -62.66 v -222.43 h 59.53 z"
         id="path1213" />
      <path
         style="fill:#008484;fill-opacity:1;fill-rule:evenodd;stroke:#008484;stroke-width:3.93701;stroke-linecap:round;stroke-linejoin:round;stroke-opacity:1"
         d="m 2417.37,3796.27 12.75,6.58 11.52,11.95 1.07,1.43 6.69,13.71 1.3,14.37 -3.47,13.96 -7.64,12.44 -11.16,9.82 -14.09,6.12 -12.24,1.5 -16.97,-2.38 -8.95,-4.13 -12.6,-11.17 -7.53,-13.27 -2.74,-14.27 1.7,-14.2 5.84,-13.05 9.66,-10.81 13.15,-7.5 16.35,-3.11 1.86,-0.02 z"
         id="path1215" />
      <path
         style="fill:#008484;fill-opacity:1;fill-rule:evenodd;stroke:#008484;stroke-width:3.93701;stroke-linecap:round;stroke-linejoin:round;stroke-opacity:1"
         d="m 15100.9,3503.77 -0.1,29.44 -0.3,23.88 -0.4,19.01 -0.6,14.86 -0.9,11.4 -1.2,8.65 -1.2,5.43 -9.5,27.75 -13,22.74 -16.8,18.15 -20.8,13.96 -3.6,1.79 -10.3,4.71 -8.9,3.05 -9.4,1.81 -12,0.99 -13.2,0.49 -16.7,0.21 -12.2,-0.6 -9.5,-1.58 -8.6,-2.76 -0.5,-0.22 -17.3,-8.37 -13.1,-10.06 -11,-13.45 -2,-2.98 -7.2,-9.85 -5.9,-5.01 -4,0.08 -1.7,5.38 v 0.75 l -2.9,11.33 -7.9,11 -11.9,9.24 -4.1,2.19 -5.2,2.46 -4.7,1.77 -5.3,1.12 -6.8,0.53 -9.3,-0.02 -12.9,-0.52 -17.5,-0.98 -14.5,-0.87 -20.3,-1.27 -19.2,-1.29 -16.9,-1.21 -13.2,-1.03 -8.3,-0.77 -16.4,-1.86 v -77.6 h 66.8 l 20.9,-0.14 19,-0.42 16,-0.63 12.2,-0.82 7.2,-0.94 0.8,-0.23 6.2,-2.66 4.7,-3.63 3.3,-5.48 2.3,-8.22 1.5,-11.84 0.9,-16.34 0.5,-21.48 1.1,-52.48 h -163.4 v -3.13 h 238.1 v 47.09 l 0.2,22.24 1,17.07 1.9,12.99 3,9.99 4.3,8.07 4.6,5.83 11.6,8.64 15,4.74 16.7,0.63 16.7,-3.69 5.5,-2.32 12.9,-9.07 9.2,-12.08 3.3,-5.93 2.4,-5.57 1.6,-6.42 1,-8.53 0.7,-11.86 0.5,-16.43 0.1,-7.62 1.1,-47.77 h -113.3 -238.1 v -78.32 h 429.2 z"
         id="path1217" />
      <path
         style="fill:#008484;fill-opacity:1;fill-rule:evenodd;stroke:#008484;stroke-width:3.93701;stroke-linecap:round;stroke-linejoin:round;stroke-opacity:1"
         d="m 2127.18,3429.21 14.53,6.75 13.03,12.66 0.34,0.44 8.16,14.46 1.98,14.04 -4.16,14.02 -2.09,3.71 -10.77,12.03 -14.02,7.96 -15.67,3.48 -15.73,-1.41 -11.34,-4.78 -12.13,-10.82 -8.09,-14.33 -2.94,-15.88 0.63,-8.38 2.68,-6.71 5.85,-7.31 4.25,-4.38 14.77,-11.19 15.4,-5.17 z"
         id="path1219" />
      <path
         style="fill:#008484;fill-opacity:1;fill-rule:evenodd;stroke:#008484;stroke-width:3.93701;stroke-linecap:round;stroke-linejoin:round;stroke-opacity:1"
         d="m 16898.2,3002.39 -0.2,44.06 -0.3,38.25 -0.2,32.88 -0.3,27.98 -0.4,23.53 -0.4,19.53 -0.4,15.98 -0.5,12.89 -0.6,10.24 -0.7,8.06 -0.9,6.33 -0.9,5.05 -0.4,1.93 -13.3,42.65 -17.7,39.35 -21.7,35.66 -25.4,31.54 -28.7,27.01 -31.8,22.08 -34.4,16.74 -8,2.96 -15.5,4.89 -17.4,4.67 -13.9,3.11 -15.5,2.25 -19.4,1.79 -21.7,1.27 -22.1,0.69 -20.7,0.05 -17.6,-0.67 -10,-0.98 -29.4,-5.82 -28.9,-8.74 -27.4,-11.14 -24.7,-13.01 -21,-14.36 -16.1,-15.18 -3.8,-4.66 -4.1,-4.18 -4.4,-0.61 -6.1,3.32 -8.9,7.59 -0.7,0.68 -10.2,8.42 -11.1,7.65 -5.2,2.97 -5.9,2.84 -6,2.46 -6.6,2.12 -7.8,1.81 -9.3,1.54 -11.3,1.29 -14,1.08 -16.9,0.9 -20.5,0.75 -24.4,0.64 -28.9,0.56 -33.9,0.5 -39.3,0.49 -32.9,0.37 -202.8,2.21 v -201.14 l 187.8,-0.85 40.6,-0.21 34.8,-0.24 29.3,-0.28 24.3,-0.34 19.6,-0.39 15.4,-0.46 11.6,-0.55 8.2,-0.64 5.2,-0.75 2.6,-0.85 0.3,-0.22 1,-2.35 0.9,-5.09 0.8,-8.32 0.6,-12.02 0.5,-16.19 0.4,-20.84 0.4,-25.95 0.3,-31.56 0.1,-14.74 1,-129.86 h 197 v 99.47 l 0.1,32.42 0.4,26.92 0.7,22.19 1,18.22 1.6,15.02 2.1,12.58 2.9,10.92 3.5,10.01 4.4,9.87 0.9,1.92 12,17.43 17.1,13.9 22,10.25 1.1,0.37 8.6,2.35 9.8,1.51 12.4,0.8 16.5,0.18 12.9,-0.15 17.4,-0.34 12.7,-0.51 9.1,-0.93 7.2,-1.6 6.5,-2.53 7.3,-3.71 3.4,-1.82 16,-9.99 12.1,-11.08 10,-14.19 5.2,-9.67 4.4,-9.38 3.6,-9.54 2.8,-10.47 2.2,-12.16 1.6,-14.63 1,-17.85 0.7,-21.85 0.4,-26.6 0.1,-30.99 v -96.34 h -253.7 -197 v -3.13 h -385.7 v -203.63 h 1024.7 z"
         id="path1221" />
      <path
         style="fill:#008484;fill-opacity:1;fill-rule:evenodd;stroke:#008484;stroke-width:3.93701;stroke-linecap:round;stroke-linejoin:round;stroke-opacity:1"
         d="m 2214.61,2980.36 29.21,3.69 24.2,7.18 12.43,6.2 21.18,14.61 15.46,15.35 10.26,16.95 5.62,19.43 1.53,20.69 -0.92,18.49 -2.78,13.85 -2.09,5.49 -5,8.74 -6.8,9.17 -7.27,8.07 -6.38,5.43 -3.4,1.42 -2.56,2.54 -0.33,2.16 1.68,2.95 5.81,1.45 8.18,0.3 h 15.66 v 62.65 h -90.22 l -27.29,0.03 -21.67,0.13 -16.69,0.37 -12.38,0.69 -8.7,1.13 -5.67,1.69 -3.29,2.33 -1.55,3.11 -0.48,3.97 -0.03,2.84 v 8.78 h -62.66 v -26.73 l 0.61,-16.01 1.68,-13.35 2.17,-8.03 6.38,-9.25 9.51,-7.36 10.2,-3.71 2.19,-0.15 4.53,-1.46 -0.48,-3.92 -5.06,-5.69 -9.22,-6.77 -0.74,-0.46 -10.73,-7.82 -7.48,-8.9 -5.7,-10.79 -4.24,-10.15 -1.38,-5.37 h 61.61 l 5.58,18.75 0.88,1.79 11.06,15.12 15.12,10.99 18.22,6.5 20.4,1.69 20.57,-3.19 18.7,-7.61 13.75,-11.47 8.83,-15.33 3.93,-19.23 0.22,-6.57 -2.44,-19.58 -7.43,-15.88 -12.6,-12.49 -8.86,-5.37 -9.46,-4.51 -7.98,-2.52 -8.88,-0.97 -12.13,0.18 -4.09,0.18 -19.41,2.14 -14.66,4.7 -11.12,7.94 -8.8,11.84 -2.27,4.2 -6.61,19.32 -0.52,19.38 h -61.61 l -0.83,-3.23 -0.56,-9.65 0.67,-13.14 1.43,-13.48 2.09,-12.65 2.31,-9.15 0.07,-0.19 9.69,-18.06 15.27,-16.27 20.29,-13.92 6.27,-3.3 12.21,-5.73 9.95,-3.63 10.1,-2.11 12.64,-1.17 9.02,-0.45 z"
         id="path1223" />
      <path
         style="fill:#008484;fill-opacity:1;fill-rule:evenodd;stroke:#008484;stroke-width:3.93701;stroke-linecap:round;stroke-linejoin:round;stroke-opacity:1"
         d="m 14916.9,2898.44 25.5,0.49 20.8,0.92 17,1.43 14,2.03 11.7,2.74 10.3,3.52 9.7,4.4 0.2,0.1 26.2,16.18 21.1,19.47 16.2,23.03 11.3,26.84 6.7,30.89 1.8,19.72 0.2,26.24 -2.4,22.29 -5.5,20.19 -7.3,16.88 -11.4,17.65 -15.5,17.16 -17.6,14.73 -13.7,8.37 -15,6.05 -18.8,5.32 -19.9,4.03 -18.8,2.17 -6.8,0.23 h -15.8 v -77.43 l 19.1,-1.99 22,-4.31 18.2,-8.27 15.8,-12.95 2.2,-2.37 9.1,-11.7 5.4,-11.98 2,-14.11 -0.7,-18.03 -4.3,-20.07 -9.4,-16.53 -14.3,-13.42 -7,-4.52 -7.6,-3.6 -9.1,-2.75 -11.2,-2 -14.2,-1.33 -17.9,-0.76 -22.3,-0.28 -27.5,0.13 -11.8,0.13 -24.8,0.32 -19.5,0.33 -14.9,0.42 -11.2,0.6 -8.4,0.84 -6.4,1.17 -5.3,1.57 -5.1,2.07 -4,1.87 -17.3,10.67 -13.6,13.58 -8.9,15.4 -3.1,12.93 v 17.44 l 3.1,17.64 5.5,15.51 4.8,8.07 11.3,10.56 15.9,8.79 18.7,6.28 16,2.7 21,1.96 v 77.42 l -19.5,-0.25 -14.6,-0.9 -16.1,-2.03 -8.6,-1.6 -29.6,-9.03 -24.9,-13.28 -20.4,-17.51 -15.7,-21.76 -11.2,-26.02 -6.5,-30.28 -2,-32.29 1.6,-30.04 5.2,-25.65 8.9,-22.3 13.2,-20.02 12.1,-13.25 19.7,-16.91 21.1,-12.51 24.5,-9.2 8.3,-2.26 8.1,-1.9 8.2,-1.47 9.2,-1.1 11.3,-0.77 14.1,-0.5 18,-0.28 22.7,-0.11 17.5,-0.01 z"
         id="path1225" />
      <path
         style="fill:#008484;fill-opacity:1;fill-rule:evenodd;stroke:#008484;stroke-width:3.93701;stroke-linecap:round;stroke-linejoin:round;stroke-opacity:1"
         d="m 2137.2,2722.79 h 231.83 v -84.59 h 62.65 v 150.38 H 2137.2 v 84.58 h -62.66 v -237.19 l 21.15,-1.99 12.63,-1.06 11.63,-0.73 7.07,-0.23 10.18,-0.02 z"
         id="path1227" />
      <path
         style="fill:#008484;fill-opacity:1;fill-rule:evenodd;stroke:#008484;stroke-width:3.93701;stroke-linecap:round;stroke-linejoin:round;stroke-opacity:1"
         d="M 16902.2,2541.08 H 16708 v -272.55 h -833.3 v -203.64 h 833.3 v -272.55 h 194.2 z"
         id="path1229" />
      <path
         style="fill:#008484;fill-opacity:1;fill-rule:evenodd;stroke:#008484;stroke-width:3.93701;stroke-linecap:round;stroke-linejoin:round;stroke-opacity:1"
         d="m 2214.25,2260.02 26.84,5.07 25.27,10.62 22.7,15.48 19.12,19.65 14.51,23.13 0.06,0.12 5.18,11.79 3.22,10.64 1.84,12.03 0.97,14.66 -0.19,24.2 -3.34,20.33 -6.96,18.23 -10.62,17.31 -16.5,18.26 -20.16,13.62 -24.09,9.1 -28.28,4.7 -18.48,0.75 -24.28,0.05 v -69.25 h 53.26 l 9.15,-3.19 7.03,-4.26 8.27,-7.5 5.06,-5.82 6.29,-8.72 3.37,-7.32 1.34,-8.66 0.21,-9.7 -2.52,-21.14 -7.43,-17.69 -12.11,-13.81 -10.05,-6.59 -8.61,-4.49 v 118.89 h -53.26 v -23.17 l -0.04,-23.34 -0.11,-21.18 -0.17,-18.23 -0.22,-14.53 -0.26,-10.05 -0.29,-4.79 -0.1,-0.3 -6.27,1.79 -8.76,4.48 -8.91,5.81 -6.63,5.68 -10.84,14.46 -5.85,15.57 -1.68,17.94 1.83,19.76 5.39,15.1 8.85,10.12 0.9,0.62 5.7,4.79 2.33,4.07 -1.52,4.11 -4.03,8.11 -5.82,10.71 -3.66,6.43 -14.96,25.8 -7.69,-5.12 -6.32,-4.88 -8.7,-7.53 -7.68,-7.12 -8.17,-8.57 -5.83,-8.39 -4.72,-10.38 -4.32,-12.79 -6.24,-29.31 -0.43,-28.07 4.94,-26.33 9.9,-24.05 14.42,-21.25 18.53,-17.93 22.22,-14.08 25.47,-9.7 28.3,-4.8 z"
         id="path1231" />
      <path
         style="fill:#008484;fill-opacity:1;fill-rule:evenodd;stroke:#008484;stroke-width:3.93701;stroke-linecap:round;stroke-linejoin:round;stroke-opacity:1"
         d="m 2428.55,1958.38 h -68.92 l -24.17,0.02 -18.38,0.24 -13.09,0.68 -8.26,1.37 -3.93,2.3 -0.08,3.46 3.3,4.88 6.18,6.51 6.46,6.32 10.92,12.02 7.2,11.89 4,13.37 1.33,16.46 -0.53,16.74 -4.06,25.34 -8.99,21.62 -14.13,18.22 -19.48,15.1 -15.43,8.21 -10.71,4.62 -9.38,3.03 -10.09,1.86 -12.83,1.09 -12.24,0.54 -17.75,0.15 -17.93,-0.69 -15.42,-1.4 -4.81,-0.72 -17.52,-4.76 -18.32,-7.77 -17.24,-9.78 -14.31,-10.76 -7.71,-8.13 -8.49,-15.5 -5.72,-20.12 -2.68,-23.6 -0.16,-7.53 2.2,-21.84 0.18,-0.53 h 63.72 l 0.19,10.21 3.86,20.77 8.47,16.71 12.71,12.42 16.62,7.91 20.16,3.16 23.35,-1.81 5.24,-1.02 16.25,-6.06 14.12,-10.11 10.21,-12.78 2.08,-4.26 3.17,-12.76 0.89,-15.71 -1.36,-15.78 -3.32,-12.39 -8.26,-14.09 -11.48,-12.11 -12.82,-8.26 -3.08,-1.21 -12.37,-2.54 -15.7,-1.06 -16.3,0.44 -14.14,1.92 -4.7,1.28 -13.77,7.79 -10.46,12.61 -6.8,16.68 -2.76,20.05 h -63.72 l 6.22,-18.42 10.15,-15.17 12.3,-9.84 9.12,-6.54 3.62,-6.16 0.03,-0.61 -0.77,-3.57 -3.31,-1.86 -7.33,-0.68 -5.82,-0.06 h -17.23 v -62.66 h 354.01 z"
         id="path1233" />
    </g>
    <g
       style="fill:#008484;fill-opacity:0;stroke:#008484;stroke-width:80;stroke-linecap:round;stroke-linejoin:round;stroke-opacity:1"
       id="g1691">
      <path
         d="m 10274,2321 h 140"
         id="path1239" />
      <path
         d="M 8521,4214 V 4074"
         id="path1241" />
      <path
         d="m 10414,5967 h -140"
         id="path1243" />
      <path
         d="m 12167,4074 v 140"
         id="path1245" />
      <path
         d="m 1594,6144 250,250"
         id="path1247" />
      <path
         d="m 1844,6394 v 500"
         id="path1249" />
      <path
         d="m 1844,6894 -250,250"
         id="path1251" />
      <path
         d="M 1094,7144 844,6894"
         id="path1253" />
      <path
         d="M 844,6894 V 6394"
         id="path1255" />
      <path
         d="m 844,6394 250,-250"
         id="path1257" />
      <path
         d="m 1844,4394 v 500"
         id="path1259" />
      <path
         d="m 1844,4894 -250,250"
         id="path1261" />
      <path
         d="M 1094,5144 844,4894"
         id="path1263" />
      <path
         d="m 1594,5144 250,250"
         id="path1265" />
      <path
         d="m 1844,5394 v 500"
         id="path1267" />
      <path
         d="m 1844,5894 -250,250"
         id="path1269" />
      <path
         d="M 1094,6144 844,5894"
         id="path1271" />
      <path
         d="M 844,5894 V 5394"
         id="path1273" />
      <path
         d="m 844,5394 250,-250"
         id="path1275" />
      <path
         d="m 1594,3144 250,250"
         id="path1277" />
      <path
         d="m 1844,3394 v 500"
         id="path1279" />
      <path
         d="m 1844,3894 -250,250"
         id="path1281" />
      <path
         d="M 1094,4144 844,3894"
         id="path1283" />
      <path
         d="M 844,3894 V 3394"
         id="path1285" />
      <path
         d="m 844,3394 250,-250"
         id="path1287" />
      <path
         d="M 1844,4394 1594,4144"
         id="path1289" />
      <path
         d="M 1094,4144 844,4394"
         id="path1291" />
      <path
         d="M 844,4894 V 4394"
         id="path1293" />
      <path
         d="m 1844,1394 v 500"
         id="path1295" />
      <path
         d="m 1844,1894 -250,250"
         id="path1297" />
      <path
         d="M 1094,2144 844,1894"
         id="path1299" />
      <path
         d="m 1594,2144 250,250"
         id="path1301" />
      <path
         d="m 1844,2394 v 500"
         id="path1303" />
      <path
         d="m 1844,2894 -250,250"
         id="path1305" />
      <path
         d="M 1094,3144 844,2894"
         id="path1307" />
      <path
         d="M 844,2894 V 2394"
         id="path1309" />
      <path
         d="m 844,2394 250,-250"
         id="path1311" />
      <path
         d="M 1594,1144 H 1094"
         id="path1313" />
      <path
         d="M 1844,1394 1594,1144"
         id="path1315" />
      <path
         d="M 1094,1144 844,1394"
         id="path1317" />
      <path
         d="M 844,1894 V 1394"
         id="path1319" />
      <path
         d="M 1594,7144 H 1094"
         id="path1321" />
      <path
         d="m 10594,1144 h -500"
         id="path1323" />
      <path
         d="M 10094,1144 9844,894"
         id="path1325" />
      <path
         d="m 9844,394 250,-250"
         id="path1327" />
      <path
         d="m 11844,894 -250,250"
         id="path1329" />
      <path
         d="m 11594,1144 h -500"
         id="path1331" />
      <path
         d="M 11094,1144 10844,894"
         id="path1333" />
      <path
         d="m 10844,394 250,-250"
         id="path1335" />
      <path
         d="m 11094,144 h 500"
         id="path1337" />
      <path
         d="m 11594,144 250,250"
         id="path1339" />
      <path
         d="m 10594,1144 250,-250"
         id="path1341" />
      <path
         d="M 10844,394 10594,144"
         id="path1343" />
      <path
         d="m 10094,144 h 500"
         id="path1345" />
      <path
         d="m 13594,1144 h -500"
         id="path1347" />
      <path
         d="M 13094,1144 12844,894"
         id="path1349" />
      <path
         d="m 12844,394 250,-250"
         id="path1351" />
      <path
         d="m 12844,894 -250,250"
         id="path1353" />
      <path
         d="m 12594,1144 h -500"
         id="path1355" />
      <path
         d="M 12094,1144 11844,894"
         id="path1357" />
      <path
         d="m 11844,394 250,-250"
         id="path1359" />
      <path
         d="m 12094,144 h 500"
         id="path1361" />
      <path
         d="m 12594,144 250,250"
         id="path1363" />
      <path
         d="m 14844,894 -250,250"
         id="path1365" />
      <path
         d="m 14594,1144 h -500"
         id="path1367" />
      <path
         d="M 14094,1144 13844,894"
         id="path1369" />
      <path
         d="m 13844,394 250,-250"
         id="path1371" />
      <path
         d="m 14094,144 h 500"
         id="path1373" />
      <path
         d="m 14594,144 250,250"
         id="path1375" />
      <path
         d="m 13594,1144 250,-250"
         id="path1377" />
      <path
         d="M 13844,394 13594,144"
         id="path1379" />
      <path
         d="m 13094,144 h 500"
         id="path1381" />
      <path
         d="m 16594,1144 h -500"
         id="path1383" />
      <path
         d="M 16094,1144 15844,894"
         id="path1385" />
      <path
         d="m 15844,394 250,-250"
         id="path1387" />
      <path
         d="m 15844,894 -250,250"
         id="path1389" />
      <path
         d="m 15594,1144 h -500"
         id="path1391" />
      <path
         d="M 15094,1144 14844,894"
         id="path1393" />
      <path
         d="m 14844,394 250,-250"
         id="path1395" />
      <path
         d="m 15094,144 h 500"
         id="path1397" />
      <path
         d="m 15594,144 250,250"
         id="path1399" />
      <path
         d="M 16844,894 V 394"
         id="path1401" />
      <path
         d="m 16594,1144 250,-250"
         id="path1403" />
      <path
         d="M 16844,394 16594,144"
         id="path1405" />
      <path
         d="m 16094,144 h 500"
         id="path1407" />
      <path
         d="m 4844,894 -250,250"
         id="path1409" />
      <path
         d="M 4594,1144 H 4094"
         id="path1411" />
      <path
         d="M 4094,1144 3844,894"
         id="path1413" />
      <path
         d="M 3844,394 4094,144"
         id="path1415" />
      <path
         d="m 4094,144 h 500"
         id="path1417" />
      <path
         d="m 4594,144 250,250"
         id="path1419" />
      <path
         d="M 6594,1144 H 6094"
         id="path1421" />
      <path
         d="M 6094,1144 5844,894"
         id="path1423" />
      <path
         d="M 5844,394 6094,144"
         id="path1425" />
      <path
         d="m 5844,894 -250,250"
         id="path1427" />
      <path
         d="M 5594,1144 H 5094"
         id="path1429" />
      <path
         d="M 5094,1144 4844,894"
         id="path1431" />
      <path
         d="M 4844,394 5094,144"
         id="path1433" />
      <path
         d="m 5094,144 h 500"
         id="path1435" />
      <path
         d="m 5594,144 250,250"
         id="path1437" />
      <path
         d="m 7844,894 -250,250"
         id="path1439" />
      <path
         d="M 7594,1144 H 7094"
         id="path1441" />
      <path
         d="M 7094,1144 6844,894"
         id="path1443" />
      <path
         d="M 6844,394 7094,144"
         id="path1445" />
      <path
         d="m 7094,144 h 500"
         id="path1447" />
      <path
         d="m 7594,144 250,250"
         id="path1449" />
      <path
         d="M 6594,1144 6844,894"
         id="path1451" />
      <path
         d="M 6844,394 6594,144"
         id="path1453" />
      <path
         d="m 6094,144 h 500"
         id="path1455" />
      <path
         d="M 9594,1144 H 9094"
         id="path1457" />
      <path
         d="M 9094,1144 8844,894"
         id="path1459" />
      <path
         d="M 8844,394 9094,144"
         id="path1461" />
      <path
         d="m 8844,894 -250,250"
         id="path1463" />
      <path
         d="M 8594,1144 H 8094"
         id="path1465" />
      <path
         d="M 8094,1144 7844,894"
         id="path1467" />
      <path
         d="M 7844,394 8094,144"
         id="path1469" />
      <path
         d="m 8094,144 h 500"
         id="path1471" />
      <path
         d="m 8594,144 250,250"
         id="path1473" />
      <path
         d="M 9594,1144 9844,894"
         id="path1475" />
      <path
         d="M 9844,394 9594,144"
         id="path1477" />
      <path
         d="m 9094,144 h 500"
         id="path1479" />
      <path
         d="M 2594,1144 H 2094"
         id="path1481" />
      <path
         d="m 2844,894 -250,250"
         id="path1483" />
      <path
         d="M 2094,1144 1844,894"
         id="path1485" />
      <path
         d="m 2094,144 h 500"
         id="path1487" />
      <path
         d="M 1844,394 2094,144"
         id="path1489" />
      <path
         d="m 3844,894 -250,250"
         id="path1491" />
      <path
         d="M 1844,394 V 894"
         id="path1493" />
      <path
         d="m 2594,144 250,250"
         id="path1495" />
      <path
         d="M 3594,1144 H 3094"
         id="path1497" />
      <path
         d="m 3594,144 250,250"
         id="path1499" />
      <path
         d="m 3094,144 h 500"
         id="path1501" />
      <path
         d="M 2844,394 3094,144"
         id="path1503" />
      <path
         d="M 3094,1144 2844,894"
         id="path1505" />
      <path
         d="m 15594,7144 250,250"
         id="path1507" />
      <path
         d="m 15844,7894 -250,250"
         id="path1509" />
      <path
         d="m 15594,8144 h -500"
         id="path1511" />
      <path
         d="m 15094,8144 -250,-250"
         id="path1513" />
      <path
         d="m 15094,7144 h 500"
         id="path1515" />
      <path
         d="m 16094,8144 -250,-250"
         id="path1517" />
      <path
         d="M 16844,7894 V 7394"
         id="path1519" />
      <path
         d="m 14844,7394 250,-250"
         id="path1521" />
      <path
         d="m 16844,7894 -250,250"
         id="path1523" />
      <path
         d="m 16594,8144 h -500"
         id="path1525" />
      <path
         d="m 16594,7144 250,250"
         id="path1527" />
      <path
         d="m 15844,7394 250,-250"
         id="path1529" />
      <path
         d="m 16094,7144 h 500"
         id="path1531" />
      <path
         d="M 9594,8144 H 9094"
         id="path1533" />
      <path
         d="m 8844,7894 250,250"
         id="path1535" />
      <path
         d="m 9094,7144 -250,250"
         id="path1537" />
      <path
         d="M 10094,8144 9844,7894"
         id="path1539" />
      <path
         d="m 10594,8144 h -500"
         id="path1541" />
      <path
         d="m 10844,7894 -250,250"
         id="path1543" />
      <path
         d="m 10594,7144 250,250"
         id="path1545" />
      <path
         d="m 10094,7144 h 500"
         id="path1547" />
      <path
         d="m 9844,7394 250,-250"
         id="path1549" />
      <path
         d="m 9844,7894 -250,250"
         id="path1551" />
      <path
         d="m 9594,7144 250,250"
         id="path1553" />
      <path
         d="m 9094,7144 h 500"
         id="path1555" />
      <path
         d="m 12594,8144 h -500"
         id="path1557" />
      <path
         d="m 11844,7894 250,250"
         id="path1559" />
      <path
         d="m 12094,7144 -250,250"
         id="path1561" />
      <path
         d="m 11094,8144 -250,-250"
         id="path1563" />
      <path
         d="m 11594,8144 h -500"
         id="path1565" />
      <path
         d="m 11844,7894 -250,250"
         id="path1567" />
      <path
         d="m 11594,7144 250,250"
         id="path1569" />
      <path
         d="m 11094,7144 h 500"
         id="path1571" />
      <path
         d="m 10844,7394 250,-250"
         id="path1573" />
      <path
         d="m 13094,8144 -250,-250"
         id="path1575" />
      <path
         d="m 13594,8144 h -500"
         id="path1577" />
      <path
         d="m 13844,7894 -250,250"
         id="path1579" />
      <path
         d="m 13594,7144 250,250"
         id="path1581" />
      <path
         d="m 13094,7144 h 500"
         id="path1583" />
      <path
         d="m 12844,7394 250,-250"
         id="path1585" />
      <path
         d="m 12844,7894 -250,250"
         id="path1587" />
      <path
         d="m 12594,7144 250,250"
         id="path1589" />
      <path
         d="m 12094,7144 h 500"
         id="path1591" />
      <path
         d="m 14094,8144 -250,-250"
         id="path1593" />
      <path
         d="m 14594,8144 h -500"
         id="path1595" />
      <path
         d="m 14844,7894 -250,250"
         id="path1597" />
      <path
         d="m 14594,7144 250,250"
         id="path1599" />
      <path
         d="m 14094,7144 h 500"
         id="path1601" />
      <path
         d="m 13844,7394 250,-250"
         id="path1603" />
      <path
         d="M 2594,8144 H 2094"
         id="path1605" />
      <path
         d="m 1844,7894 250,250"
         id="path1607" />
      <path
         d="m 2094,7144 -250,250"
         id="path1609" />
      <path
         d="m 1844,7394 v 500"
         id="path1611" />
      <path
         d="M 3094,8144 2844,7894"
         id="path1613" />
      <path
         d="M 3594,8144 H 3094"
         id="path1615" />
      <path
         d="m 3844,7894 -250,250"
         id="path1617" />
      <path
         d="m 3594,7144 250,250"
         id="path1619" />
      <path
         d="m 3094,7144 h 500"
         id="path1621" />
      <path
         d="m 2844,7394 250,-250"
         id="path1623" />
      <path
         d="m 2844,7894 -250,250"
         id="path1625" />
      <path
         d="m 2594,7144 250,250"
         id="path1627" />
      <path
         d="m 2094,7144 h 500"
         id="path1629" />
      <path
         d="M 5594,8144 H 5094"
         id="path1631" />
      <path
         d="m 4844,7894 250,250"
         id="path1633" />
      <path
         d="m 5094,7144 -250,250"
         id="path1635" />
      <path
         d="M 4094,8144 3844,7894"
         id="path1637" />
      <path
         d="M 4594,8144 H 4094"
         id="path1639" />
      <path
         d="m 4844,7894 -250,250"
         id="path1641" />
      <path
         d="m 4594,7144 250,250"
         id="path1643" />
      <path
         d="m 4094,7144 h 500"
         id="path1645" />
      <path
         d="m 3844,7394 250,-250"
         id="path1647" />
      <path
         d="M 6094,8144 5844,7894"
         id="path1649" />
      <path
         d="M 6594,8144 H 6094"
         id="path1651" />
      <path
         d="m 6844,7894 -250,250"
         id="path1653" />
      <path
         d="m 6594,7144 250,250"
         id="path1655" />
      <path
         d="m 6094,7144 h 500"
         id="path1657" />
      <path
         d="m 5844,7394 250,-250"
         id="path1659" />
      <path
         d="m 5844,7894 -250,250"
         id="path1661" />
      <path
         d="m 5594,7144 250,250"
         id="path1663" />
      <path
         d="m 5094,7144 h 500"
         id="path1665" />
      <path
         d="M 8594,8144 H 8094"
         id="path1667" />
      <path
         d="m 7844,7894 250,250"
         id="path1669" />
      <path
         d="m 8094,7144 -250,250"
         id="path1671" />
      <path
         d="M 7094,8144 6844,7894"
         id="path1673" />
      <path
         d="M 7594,8144 H 7094"
         id="path1675" />
      <path
         d="m 7844,7894 -250,250"
         id="path1677" />
      <path
         d="m 7594,7144 250,250"
         id="path1679" />
      <path
         d="m 7094,7144 h 500"
         id="path1681" />
      <path
         d="m 6844,7394 250,-250"
         id="path1683" />
      <path
         d="m 8844,7894 -250,250"
         id="path1685" />
      <path
         d="m 8594,7144 250,250"
         id="path1687" />
      <path
         d="m 8094,7144 h 500"
         id="path1689" />
    </g>
    <g
       style="fill:#008484;fill-opacity:0;stroke:#008484;stroke-width:59.0551;stroke-linecap:round;stroke-linejoin:round;stroke-opacity:1"
       id="g1701">
      <text
         x="18279.6"
         y="2076.3999"
         textLength="444.88199"
         font-size="524.934px"
         lengthAdjust="spacingAndGlyphs"
         text-anchor="middle"
         opacity="0"
         id="text1693">G</text>
      <path
         d="m 18382,1682 -37,-19 h -57 l -56,19 -37,38 -19,37 -19,75 v 56 l 19,75 19,38 37,37 56,19 h 38 l 56,-19 19,-18 v -132 h -75"
         id="path1695" />
      <text
         x="18279.6"
         y="6576.3999"
         textLength="470.47198"
         font-size="524.934px"
         lengthAdjust="spacingAndGlyphs"
         text-anchor="middle"
         opacity="0"
         id="text1697">G</text>
      <path
         d="m 18382,6182 -37,-19 h -57 l -56,19 -37,38 -19,37 -19,75 v 56 l 19,75 19,38 37,37 56,19 h 38 l 56,-19 19,-18 v -132 h -75"
         id="path1699" />
    </g>
    <g
       style="fill:#008484;fill-opacity:0;stroke:#008484;stroke-width:30.4;stroke-linecap:round;stroke-linejoin:round;stroke-opacity:1"
       id="g1713">
      <text
         x="11479.6"
         y="2779.55"
         textLength="683.91498"
         font-size="333.333px"
         lengthAdjust="spacingAndGlyphs"
         text-anchor="start"
         opacity="0"
         id="text1703">IC1</text>
      <path
         d="M 11558,2767 V 2517"
         id="path1705" />
      <path
         d="m 11820,2743 -12,12 -35,12 h -24 l -36,-12 -24,-24 -12,-23 -12,-48 v -36 l 12,-47 12,-24 24,-24 36,-12 h 24 l 35,12 12,12"
         id="path1707" />
      <path
         d="m 12058,2767 h -143"
         id="path1709" />
      <path
         d="m 11987,2767 v -250 l -24,36 -24,24 -24,12"
         id="path1711" />
    </g>
    <g
       style="fill:#008484;fill-opacity:0;stroke:#008484;stroke-width:30.4;stroke-linecap:round;stroke-linejoin:round;stroke-opacity:1"
       id="g1737">
      <text
         x="12879.6"
         y="5429.5498"
         textLength="547.15002"
         font-size="333.333px"
         lengthAdjust="spacingAndGlyphs"
         text-anchor="end"
         opacity="0"
         id="text1721">C1</text>
      <path
         d="m 12574,5393 -12,12 -36,12 h -24 l -36,-12 -23,-24 -12,-23 -12,-48 v -36 l 12,-47 12,-24 23,-24 36,-12 h 24 l 36,12 12,12"
         id="path1723" />
      <path
         d="m 12812,5417 h -143"
         id="path1725" />
      <path
         d="m 12740,5417 v -250 l -24,36 -23,24 -24,12"
         id="path1727" />
      <g
         transform="rotate(-90,13279.6,3879.55)"
         id="g1731">
        <text
           x="13279.6"
           y="4129.5498"
           textLength="527.61499"
           font-size="333.333px"
           lengthAdjust="spacingAndGlyphs"
           text-anchor="end"
           opacity="0"
           id="text1729">C2</text>
      </g>
      <path
         d="m 13493,4185 12,11 12,36 v 24 l -12,36 -24,23 -23,12 -48,12 h -36 l -47,-12 -24,-12 -24,-23 -12,-36 v -24 l 12,-36 12,-11"
         id="path1733" />
      <path
         d="m 13291,4089 -12,-12 -12,-23 v -60 l 12,-24 12,-12 24,-12 h 24 l 35,12 143,143 v -155"
         id="path1735" />
    </g>
    <g
       style="fill:#008484;fill-opacity:0;stroke:#008484;stroke-width:38;stroke-linecap:round;stroke-linejoin:round;stroke-opacity:1"
       id="g1777">
      <text
         x="3529.55"
         y="2779.55"
         textLength="527.61499"
         font-size="333.333px"
         lengthAdjust="spacingAndGlyphs"
         text-anchor="start"
         opacity="0"
         id="text1739">R1</text>
      <path
         d="m 3756,2767 -83,-119"
         id="path1741" />
      <path
         d="m 3613,2767 v -250 h 96 l 23,12 12,12 12,24 v 35 l -12,24 -12,12 -23,12 h -96"
         id="path1743" />
      <path
         d="M 3994,2767 H 3851"
         id="path1745" />
      <path
         d="m 3923,2767 v -250 l -24,36 -24,24 -24,12"
         id="path1747" />
      <text
         x="4029.55"
         y="5729.5498"
         textLength="537.495"
         font-size="333.333px"
         lengthAdjust="spacingAndGlyphs"
         text-anchor="end"
         opacity="0"
         id="text1749">R2</text>
      <path
         d="m 3719,5717 -84,-119"
         id="path1751" />
      <path
         d="m 3576,5717 v -250 h 95 l 24,12 12,12 12,24 v 35 l -12,24 -12,12 -24,12 h -95"
         id="path1753" />
      <path
         d="m 3814,5491 12,-12 24,-12 h 59 l 24,12 12,12 12,24 v 24 l -12,35 -143,143 h 155"
         id="path1755" />
      <text
         x="6779.5498"
         y="2529.55"
         textLength="537.495"
         font-size="333.333px"
         lengthAdjust="spacingAndGlyphs"
         text-anchor="end"
         opacity="0"
         id="text1757">R3</text>
      <path
         d="m 6469,2517 -84,-119"
         id="path1759" />
      <path
         d="m 6326,2517 v -250 h 95 l 24,12 12,12 12,24 v 35 l -12,24 -12,12 -24,12 h -95"
         id="path1761" />
      <path
         d="m 6552,2267 h 155 l -84,95 h 36 l 24,12 12,12 12,24 v 60 l -12,23 -12,12 -24,12 h -71 l -24,-12 -12,-12"
         id="path1763" />
      <text
         x="6779.5498"
         y="5929.5498"
         textLength="537.495"
         font-size="333.333px"
         lengthAdjust="spacingAndGlyphs"
         text-anchor="end"
         opacity="0"
         id="text1765">R4</text>
      <path
         d="m 6469,5917 -84,-119"
         id="path1767" />
      <path
         d="m 6326,5917 v -250 h 95 l 24,12 12,12 12,24 v 35 l -12,24 -12,12 -24,12 h -95"
         id="path1769" />
      <path
         d="m 6683,5750 v 167"
         id="path1771" />
      <path
         d="m 6623,5655 -59,179 h 155"
         id="path1773" />
      <g
         id="g1775" />
    </g>
    <g
       style="fill:#c2c200;fill-opacity:0;stroke:#c2c200;stroke-width:59.0551;stroke-linecap:round;stroke-linejoin:round;stroke-opacity:1"
       id="g1873">
      <path
         d="M 29,1879 V 6479"
         id="path1823" />
      <path
         d="M 29.5543,6369.53 A 1900.05,1900.05 0 0 0 1929.53,8279.58"
         id="path1825" />
      <path
         d="M 1939.58,29.5543 A 1900.03,1900.03 0 0 0 29.5543,1929.5"
         id="path1827" />
      <path
         d="m 16379.6,8279.55 a 4125,4125 0 0 0 0,-8249.9957"
         id="path1829" />
      <path
         d="M 1929,8279 H 16379"
         id="path1831" />
      <path
         d="M 16379,29 H 1929"
         id="path1833" />
      <g
         id="g1835" />
      <g
         id="g1837" />
      <g
         id="g1839" />
      <g
         id="g1841" />
      <g
         id="g1843" />
      <g
         id="g1845" />
      <g
         id="g1847" />
      <g
         id="g1849" />
      <g
         id="g1851" />
      <g
         id="g1853" />
      <g
         id="g1855" />
      <g
         id="g1857" />
      <g
         id="g1859" />
      <g
         id="g1861" />
      <g
         id="g1863" />
      <g
         id="g1865" />
      <g
         id="g1867" />
      <g
         id="g1869" />
      <g
         id="g1871" />
    </g>
  </g>
  <path
     style="fill:none;stroke:#000000;stroke-width:67.4545;stroke-linecap:butt;stroke-linejoin:miter;stroke-miterlimit:4;stroke-dasharray:202.363, 202.363;stroke-dashoffset:0;stroke-opacity:1"
     d="m 31573.41,14911.47 c 138.258,2110.007 -8105.764,3153.139 -19970.237,2865.578"
     id="path17358"
     sodipodi:nodetypes="cc" />
  <path
     style="fill:none;stroke:#000000;stroke-width:67.4545;stroke-linecap:butt;stroke-linejoin:miter;stroke-miterlimit:4;stroke-dasharray:202.363, 202.363;stroke-dashoffset:0;stroke-opacity:1"
     d="m 30573.41,14911.47 c 25.277,2048.954 -15555.555,-430.884 -23333.3319,-646.326"
     id="path17360"
     sodipodi:nodetypes="cc" />
  <path
     style="fill:none;stroke:#000000;stroke-width:67.4545;stroke-linecap:butt;stroke-linejoin:miter;stroke-miterlimit:4;stroke-dasharray:202.363, 202.363;stroke-dashoffset:0;stroke-opacity:1"
     d="m 32656.743,14911.47 c -54.653,1748.887 1440.994,3454.171 -17172.618,5663.197"
     id="path17362"
     sodipodi:nodetypes="cc" />
  <path
     style="fill:none;stroke:#000000;stroke-width:67.4545;stroke-linecap:butt;stroke-linejoin:miter;stroke-miterlimit:4;stroke-dasharray:202.363, 202.363;stroke-dashoffset:0;stroke-opacity:1"
     d="m 33656.744,14911.47 c 66.407,2740.907 -1415.486,5481.814 -13720.238,8222.721"
     id="path17364"
     sodipodi:nodetypes="cc" />
  <path
     style="fill:none;stroke:#000000;stroke-width:67.4545;stroke-linecap:butt;stroke-linejoin:miter;stroke-miterlimit:4;stroke-dasharray:202.363, 202.363;stroke-dashoffset:0;stroke-opacity:1"
     d="m 34573.41,14911.47 c -436.581,2692.458 -1315.28,5758.539 -10327.38,10306.054"
     id="path17366"
     sodipodi:nodetypes="cc" />
  <path
     style="fill:none;stroke:#000000;stroke-width:67.4545;stroke-linecap:butt;stroke-linejoin:miter;stroke-miterlimit:4;stroke-dasharray:202.363, 202.363;stroke-dashoffset:0;stroke-opacity:1"
     d="m 35656.744,14911.47 c -75.717,3410.006 -3094.4,7276.318 -6339.286,11377.483"
     id="path17368"
     sodipodi:nodetypes="cc" />
  <path
     style="fill:none;stroke:#000000;stroke-width:67.4545;stroke-linecap:butt;stroke-linejoin:miter;stroke-miterlimit:4;stroke-dasharray:202.363, 202.363;stroke-dashoffset:0;stroke-opacity:1"
     d="m 36573.41,14911.47 c 17.508,3618.526 -1328.211,7994.401 -2708.333,12389.387"
     id="path17370"
     sodipodi:nodetypes="cc" />
  <path
     style="fill:none;stroke:#000000;stroke-width:67.4545;stroke-linecap:butt;stroke-linejoin:miter;stroke-miterlimit:4;stroke-dasharray:202.363, 202.363;stroke-dashoffset:0;stroke-opacity:1"
     d="m 38698.41,14911.47 c 800.504,6481.529 3408.779,8744.928 5119.048,13103.673"
     id="path17372"
     sodipodi:nodetypes="cc" />
  <path
     style="fill:none;stroke:#000000;stroke-width:67.4545;stroke-linecap:butt;stroke-linejoin:miter;stroke-miterlimit:4;stroke-dasharray:202.363, 202.363;stroke-dashoffset:0;stroke-opacity:1"
     d="m 37656.744,14911.47 c -64.166,4209.161 484.533,8418.322 863.095,12627.483"
     id="path17374"
     sodipodi:nodetypes="cc" />
  <path
     style="fill:none;stroke:#000000;stroke-width:67.4545;stroke-linecap:butt;stroke-linejoin:miter;stroke-miterlimit:4;stroke-dasharray:202.363, 202.363;stroke-dashoffset:0;stroke-opacity:1"
     d="m 39573.41,14911.47 c 533.912,4364.163 5939.762,8070.798 9017.857,12091.768"
     id="path17376"
     sodipodi:nodetypes="cc" />
  <path
     style="fill:none;stroke:#000000;stroke-width:67.4545;stroke-linecap:butt;stroke-linejoin:miter;stroke-miterlimit:4;stroke-dasharray:202.363, 202.363;stroke-dashoffset:0;stroke-opacity:1"
     d="m 41698.41,14911.47 c 2136.029,7262.36 11150.336,6275.512 16726.19,9413.197"
     id="path17378"
     sodipodi:nodetypes="cc" />
  <path
     style="fill:none;stroke:#000000;stroke-width:67.4545;stroke-linecap:butt;stroke-linejoin:miter;stroke-miterlimit:4;stroke-dasharray:202.363, 202.363;stroke-dashoffset:0;stroke-opacity:1"
     d="m 40656.744,14911.47 c 907.686,5391.047 8231.999,7510.151 12470.237,11258.435"
     id="path17380"
     sodipodi:nodetypes="cc" />
  <path
     style="fill:none;stroke:#000000;stroke-width:67.4545;stroke-linecap:butt;stroke-linejoin:miter;stroke-miterlimit:4;stroke-dasharray:202.363, 202.363;stroke-dashoffset:0;stroke-opacity:1"
     d="m 42698.41,14994.803 c 3311.988,5687.636 13049.38,4798.801 19940.475,6972.721"
     id="path17382"
     sodipodi:nodetypes="cc" />
  <path
     style="fill:none;stroke:#000000;stroke-width:67.4545;stroke-linecap:butt;stroke-linejoin:miter;stroke-miterlimit:4;stroke-dasharray:202.363, 202.363;stroke-dashoffset:0;stroke-opacity:1"
     d="m 44531.743,14881.708 c 2362.882,3323.594 15565.456,881.394 24642.855,633.436"
     id="path17384"
     sodipodi:nodetypes="cc" />
  <path
     sodipodi:nodetypes="cc"
     id="path16627"
     d="m 43698.409,14881.708 c 853.179,3927.656 13999.065,3471.351 22619.047,4502.483"
     style="fill:none;stroke:#000000;stroke-width:67.4545;stroke-linecap:butt;stroke-linejoin:miter;stroke-miterlimit:4;stroke-dasharray:202.363, 202.363;stroke-dashoffset:0;stroke-opacity:1" />
  <path
     style="fill:none;stroke:#000000;stroke-width:104.167px;stroke-linecap:butt;stroke-linejoin:miter;stroke-opacity:1"
     d="m 7895.8037,16605.583 c -134.0771,148.888 -296.1479,269.872 -478.095,354.863 -181.9597,84.998 -379.9073,132.159 -582.9819,137.831 -203.0414,5.671 -406.6653,-30.288 -598.7418,-106.123 -192.0385,-75.819 -368.2076,-189.813 -517.448,-334.901 -149.2395,-145.088 -268.2027,-318.017 -349.4612,-507.916 -81.2752,-189.939 -123.0146,-392.561 -123.0819,-595.755 -0.067,-203.231 41.5261,-402.453 121.4349,-586.719 79.9028,-184.253 196.3706,-349.584 341.51,-487.705 292.8005,-278.643 684.6082,-430.362 1082.6826,-430.643 398.5878,-0.282 775.3224,150.59 1053.5859,421.078 278.2616,270.487 439.9396,643.001 450.9371,1041.62 10.9846,398.151 -129.8246,793.97 -400.3407,1094.37 z M 6844.083,12860.236 c 835.697,897.202 1717.6737,1753.44 2639.4255,2566.705 L 6921.3752,18330.874 C 5907.1716,17436.05 4934.7524,16491.748 4010.6224,15499.976 Z m 4988.9,6877.818 c -115.179,163.945 -261.507,303.56 -431.817,409.909 -170.321,106.356 -361.007,177.16 -561.691,207.529 -200.653,30.364 -406.85,19.607 -606.39,-31.992 -199.503,-51.589 -387.8961,-142.874 -553.4303,-268.227 -165.5331,-125.352 -304.5247,-281.984 -408.3301,-460.102 -103.8256,-178.152 -170.1438,-373.802 -195.331,-575.247 -25.1917,-201.48 -8.7007,-404.247 47.5816,-597.014 56.2782,-192.752 151.1144,-371.372 277.8028,-526.589 255.596,-313.152 625.312,-512.725 1020.699,-562.296 395.863,-49.63 789.159,53.992 1099.392,288.887 310.23,234.893 516.864,585.53 576.47,980.207 59.54,394.248 -32.553,804.133 -264.956,1134.935 z m -1509.324,-3590.826 c 945.136,787.341 1928.735,1531.059 2944.601,2230.49 l -2196.092,3189.751 C 9961.5339,20802.839 8883.8306,19987.727 7845.2538,19122.798 Z m 5784.372,6244.46 c -96.042,175.839 -225.769,331.001 -382.975,455.86 -157.216,124.867 -338.592,216.764 -534.346,269.725 -195.727,52.954 -401.521,65.792 -605.272,37.429 -203.716,-28.357 -400.881,-97.292 -579.272,-202.587 -178.391,-105.295 -334.073,-244.629 -457.408,-409.333 -123.359,-164.734 -211.635,-351.181 -259.883,-548.19 -48.257,-197.041 -55.424,-400.271 -22.005,-598.253 33.417,-197.968 106.684,-386.466 214.322,-555.451 217.179,-340.954 560.99,-582.406 948.41,-677.408 387.853,-95.108 791.333,-37.183 1127.349,161.124 336.015,198.306 581.967,523.669 686.202,909.347 104.13,385.287 58.68,802.913 -135.122,1157.737 z m -1916.924,-3396.46 c 1034.79,672.768 2100.423,1300.821 3191.4,1884.271 l -1826.212,3414.989 c -1185.682,-634.025 -2346.134,-1318.152 -3475.854,-2052.495 z m 6455.179,5570.245 c -77.015,184.963 -189.701,352.909 -332.827,493.651 -143.135,140.75 -313.702,251.308 -502.571,324.749 -188.843,73.431 -391.857,108.125 -597.148,101.742 -205.256,-6.383 -408.279,-53.707 -596.545,-139.103 -188.266,-85.395 -357.652,-206.993 -497.718,-357.26 -140.09,-150.293 -247.776,-325.944 -316.949,-516.447 -69.183,-190.531 -98.339,-391.715 -86.668,-592.13 11.67,-200.402 63.896,-395.781 152.418,-575.517 178.622,-362.674 493.997,-640.219 869.252,-776.588 375.644,-136.51 783.788,-122.166 1139.932,39.358 356.141,161.523 636.003,459.226 780.812,831.895 144.671,372.314 143.426,792.395 -11.988,1165.65 z m -2275.181,-3172.928 c 1105.777,556.606 2235.494,1068.331 3384.42,1535.565 l -1458.749,3587.35 c -1242.64,-505.266 -2466.458,-1059.753 -3666.724,-1663.849 z m 7012.221,4871.134 c -58.181,191.72 -153.554,370.068 -281.872,524.407 -128.326,154.347 -286.911,281.422 -467.337,373.449 -180.402,92.014 -378.716,146.965 -583.363,161.347 -204.615,14.379 -411.09,-12.128 -606.736,-77.935 -195.645,-65.807 -376.198,-169.48 -530.571,-304.618 -154.397,-135.16 -279.233,-298.821 -367.375,-481.188 -88.155,-182.393 -137.695,-379.495 -146.617,-580.03 -8.92,-200.522 22.945,-400.236 92.521,-588.12 140.399,-379.137 425.586,-687.602 785.279,-861.555 360.042,-174.121 768.132,-201.208 1139.416,-76.336 371.281,124.872 680.196,393.114 861.876,749.505 181.514,356.067 222.192,774.171 104.779,1161.074 z m -2588.693,-2927.098 c 1160.061,440.448 2337.996,836.198 3529.734,1187.541 l -1095.006,3714.544 c -1284.624,-378.661 -2555.734,-805.8 -3809.259,-1281.706 z m 7469.315,4153.632 c -39.441,196.433 -117.187,383.138 -230.009,549.13 -112.829,166.001 -258.376,307.785 -428.996,416.817 -170.598,109.018 -362.562,182.902 -564.715,217.059 -202.122,34.152 -410.024,27.829 -610.959,-18.619 -200.934,-46.448 -390.536,-132.012 -557.184,-251.413 -166.675,-119.42 -306.761,-270.069 -412.219,-442.912 -105.471,-172.866 -174.023,-364.152 -202.534,-562.836 -28.509,-198.672 -16.397,-400.551 34.405,-594.356 102.517,-391.102 356.067,-726.045 697.251,-934.315 341.499,-208.462 745.386,-275.127 1127.42,-186.821 382.033,88.305 715.761,325.471 931.157,662.692 215.202,336.919 295.977,749.158 216.383,1145.574 z m -2863.405,-2661.911 c 1199.625,324.597 2411.771,604.586 3632.823,839.899 l -732.757,3802.609 c -1314.022,-253.191 -2619.069,-554.676 -3911.526,-904.386 z m 7838.952,3416.39 c -20.561,199.295 -80.18,392.552 -176.686,568.53 -96.513,175.988 -227.899,330.983 -387.359,455.764 -159.438,124.764 -343.484,216.591 -541.444,269.847 -197.928,53.248 -405.456,66.763 -609.861,39.681 -204.405,-27.081 -401.25,-94.17 -578.48,-197.122 -177.257,-102.968 -331.036,-239.551 -452.482,-401.527 -121.461,-161.998 -207.954,-345.856 -255.311,-540.904 -47.355,-195.035 -54.599,-397.15 -22.559,-594.925 64.657,-399.121 285.03,-756.758 604.85,-996.655 320.108,-240.113 715.916,-344.979 1104.712,-293.467 388.796,51.512 743.625,255.831 990.157,571.012 246.307,314.895 365.957,717.579 324.463,1119.766 z m -3104.912,-2376.818 c 1223.764,208.024 2455.127,371.29 3690.683,489.195 2.225,0.212 4.45,0.425 6.675,0.637 l -367.378,3855.096 c -2.395,-0.229 -4.79,-0.457 -7.185,-0.686 -1329.855,-126.912 -2654.914,-302.594 -3971.773,-526.444 z m 8129.759,2651.884 c -1.223,200.35 -41.905,398.458 -121.006,582.927 -79.105,184.48 -194.977,351.419 -341.751,490.979 -146.753,139.541 -321.208,248.649 -513.247,320.68 -192.008,72.02 -397.404,105.388 -603.577,98.024 -206.174,-7.364 -408.642,-55.299 -594.989,-140.825 -186.378,-85.541 -352.568,-206.803 -488.971,-356.439 -136.422,-149.656 -240.094,-324.419 -305.863,-514.057 -65.765,-189.627 -92.262,-390.13 -79.24,-590.059 26.278,-403.473 211.517,-780.503 506.875,-1049.855 295.626,-269.596 679.414,-411.836 1071.113,-397.84 391.7,13.996 764.254,183.257 1039.842,473.214 275.328,289.683 433.283,678.949 430.814,1083.251 z m -3317.421,-2068.227 c 1167.125,85.225 2336.769,129.825 3505.991,132.745 72.831,0.18 145.66,0.199 218.485,0.06 l 7.417,3872.573 c -78.561,0.148 -157.119,0.121 -235.673,-0.08 -1261.092,-3.212 -2521.487,-51.227 -3778.245,-142.993 z m 8344.784,1847.676 c 17.376,182.858 1.578,367.321 -47.69,544.553 -83.238,299.436 -258.727,566.179 -505.454,763.553 -246.575,197.253 -551.204,314.527 -870.613,334.863 -206.176,13.127 -412.665,-14.547 -606.765,-81.271 -194.132,-66.736 -371.622,-171.057 -522.184,-306.573 -150.581,-135.535 -270.952,-299.295 -355.009,-481.582 -84.052,-182.275 -130.037,-379.225 -136.637,-579.47 -13.319,-404.103 134.135,-797.448 401.357,-1094.468 267.469,-297.295 634.867,-476.617 1025.41,-501.474 299.686,-19.074 598.985,53.662 860.846,209.303 261.657,155.519 475.058,387.546 609.481,666.339 79.644,165.18 129.886,343.402 147.258,526.227 z M 41788.76,26569.428 c 1077.959,-26.716 2154.227,-89.288 3226.197,-189.022 162.096,-15.086 324.088,-31.015 485.965,-47.791 l 399.08,3851.999 c -175.434,18.17 -350.937,35.407 -526.496,51.719 -1160.993,107.9 -2324.78,175.634 -3488.751,204.508 z m 8479.759,987.378 c 40.94,198.975 41.713,404.076 0.752,603.49 -40.963,199.428 -122.784,388.78 -241.581,556.763 -115.522,163.355 -263.502,302.917 -435.602,410.451 -172.071,107.516 -364.556,180.685 -565.846,215.069 -204.126,34.868 -412.843,29.09 -613.245,-16.921 -200.438,-46.02 -388.134,-131.252 -552.168,-250.379 -164.057,-119.143 -300.851,-269.55 -403.355,-442.17 -102.499,-172.609 -168.556,-363.763 -195.778,-562.26 -54.932,-400.556 51.133,-807.021 285.616,-1130.066 234.715,-323.363 580.502,-539.908 965.223,-605.622 379.315,-64.79 771.445,21.296 1097.578,241.616 335.076,226.359 575.783,578.475 658.406,980.029 z m -3660.374,-1352.493 c 952.301,-122.124 1899.714,-274.314 2839.971,-457.844 272.163,-53.133 543.713,-108.859 814.581,-167.213 l 815.559,3785.812 c -295.697,63.698 -591.911,124.451 -888.57,182.296 -1024.851,199.871 -2055.219,365.476 -3088.833,498.089 z m 8520.759,51.979 c 93.786,281.019 103.609,583.098 23.529,870.413 -80.066,287.263 -246.293,545.844 -479.333,742.691 -166.169,140.37 -361.236,244.981 -571.678,306.544 -199.441,58.344 -408.117,76.684 -613.021,53.945 -204.944,-22.743 -401.538,-86.052 -578.284,-185.834 -176.773,-99.798 -329.777,-233.84 -451.076,-393.861 -121.292,-160.011 -208.313,-342.576 -257.564,-536.782 -99.378,-391.87 -39.48,-807.656 156.391,-1154.847 196.082,-347.565 513.726,-601.655 886.853,-710.832 195.302,-57.145 400.588,-73.106 604.18,-47 284.897,36.526 557.841,154.45 785.367,340.756 227.501,186.285 400.926,434.019 494.636,714.807 z m -3784.067,-925.17 c 788.884,-192 1571.076,-407.058 2344.787,-646.118 401.166,-123.969 800.047,-254.284 1196.319,-391.083 l 1263.87,3660.643 c -437.045,150.912 -876.299,294.384 -1317.436,430.554 -850.729,262.637 -1708.504,498.557 -2571.537,708.705 z m 8441.15,-977.037 c 85.968,175.171 137.503,365.165 150.218,560.356 12.717,195.207 -13.676,391.582 -78.843,578.57 -65.155,186.953 -167.686,360.466 -302.131,510.549 -134.417,150.051 -297.834,273.415 -480.498,362.673 -19.423,9.492 -39.04,18.587 -58.836,27.278 -191.156,83.919 -396.644,129.145 -603.513,132.918 -206.913,3.773 -410.518,-33.988 -598.816,-110.621 -188.33,-76.646 -357.12,-190.426 -497.536,-334.039 -140.407,-143.603 -249.442,-313.933 -322.446,-500.512 -147.291,-376.436 -139.595,-796.45 10.247,-1165.051 150.023,-369.045 431.224,-660.673 785.31,-816.219 18.213,-8.001 36.588,-15.628 55.114,-22.878 350.583,-137.213 744.347,-134.645 1104.988,7.977 360.167,142.434 663.418,415.827 836.742,768.999 z m -3861.852,-435.833 c 591.596,-224.132 1176.575,-463.348 1753.809,-718.124 541.232,-238.908 1075.747,-491.248 1602.356,-757.323 l 1746.763,3456.306 c -588.455,297.46 -1184.191,578.726 -1786.018,844.101 -641.763,283.009 -1290.352,548.275 -1944.64,796.273 z m 8199.158,-2110.283 c 114.568,164.382 195.586,349.674 236.619,546.404 41.036,196.747 41.145,400.587 -0.963,600.148 -42.097,199.514 -125.447,390.099 -245.432,560.124 -119.955,169.984 -273.753,315.443 -451.577,427.034 -177.998,111.701 -375.947,186.881 -581.181,220.847 -309.092,51.123 -620.722,6.697 -894.875,-125.267 -274.21,-131.991 -497.111,-344.659 -645.444,-607.398 -148.206,-262.513 -215.492,-563.27 -198.956,-861.738 16.537,-298.496 116.095,-583.271 284.454,-819.425 112.112,-157.225 252.529,-289.877 414.259,-391.364 325.513,-204.265 722.133,-272.456 1110.668,-190.233 387.877,82.083 741.385,309.37 972.428,640.868 z m -3873.011,124.085 c 372.503,-204.32 740.506,-415.885 1103.564,-634.809 l 0,0 c 580.933,-350.176 1149.387,-718.905 1703.241,-1106.387 l 0,-0 c 91.537,-64.039 182.681,-128.588 273.423,-193.646 l 2256.408,3147.305 c -102.959,73.813 -206.323,147.007 -310.084,219.582 -627.797,439.107 -1269.832,855.666 -1923.984,1249.879 l 0,0 c -408.883,246.327 -822.387,484.015 -1240.065,713.176 z m 7741.051,-3336.616 c 179.435,181.169 310.462,404.344 377.521,652.082 67.057,247.73 67.571,510.93 -0.625,765.456 -78.525,293.074 -244.509,560.559 -475.992,766.291 -207.702,184.596 -458.948,311.278 -726.189,366.579 -267.394,55.334 -539.759,37.047 -790.381,-50.922 -262.806,-92.247 -490.717,-257.097 -663.252,-473.022 -172.4,-215.756 -283.174,-474.43 -325.03,-745.32 -39.923,-258.371 -16.084,-520.321 67.363,-760.297 83.526,-240.199 224.416,-452.008 410.711,-617.566 207.498,-184.402 464.81,-305.625 745.138,-351.105 243.185,-39.451 497.222,-20.705 738.35,56.33 241.162,77.046 463.091,210.466 642.386,391.494 z m -3789.277,751.428 c 154.585,-120.057 307.827,-241.68 459.67,-364.866 l 0,0 c 516.57,-419.076 1017.259,-856.198 1499.828,-1310.952 l 0,0 c 250.458,-236.017 496.131,-476.796 736.714,-722.222 l 2765.532,2710.82 c -276.788,282.387 -559.066,559.057 -846.53,829.894 l 0,0 c -553.857,521.815 -1126.584,1021.941 -1715.945,1499.964 l 0,0 c -173.235,140.507 -347.879,279.109 -523.878,415.805 z m 7018.096,-4604.35 c 161.033,110.858 299.199,251.61 405.53,416.434 106.34,164.839 178.548,350.258 211.406,546.976 32.85,196.673 25.585,400.19 -21.956,598.839 -47.529,198.597 -134.256,387.787 -254.906,555.803 -11.892,16.56 -24.098,32.894 -36.612,48.991 -130.123,167.385 -291.744,307.01 -474.262,409.879 -182.567,102.897 -381.659,166.582 -585.065,187.787 -203.453,21.21 -406.402,-0.541 -597.695,-62.487 -191.278,-61.941 -366.653,-162.66 -517.581,-294.448 -304.341,-265.748 -491.822,-641.862 -533.113,-1034.904 -41.366,-393.765 65.731,-778.39 298.886,-1078.34 11.15,-14.345 22.572,-28.477 34.261,-42.388 238.388,-283.711 581.415,-467.939 964.729,-516.808 382.644,-48.783 781.828,41.238 1106.378,264.666 z m -3582.666,1419.573 c 412.985,-458.74 808.809,-932.246 1185.837,-1419.494 355.167,-458.975 693.945,-930.373 1015.187,-1413.048 l 3223.806,2145.633 c -372.61,559.838 -765.116,1106.036 -1176.369,1637.45 -436.575,564.112 -893.933,1111.303 -1370.437,1640.552 z"
     id="path16629"
     sodipodi:nodetypes="cc"
     inkscape:path-effect="#path-effect17351"
     inkscape:original-d="m 5427.3527,14180.106 c 17693.3283,18991.772 53638.6823,19249.413 66169.3593,0" />
</svg>
